<?xml version="1.0" encoding="utf-8"?>
<!-- Generator: Adobe Illustrator 16.0.0, SVG Export Plug-In . SVG Version: 6.00 Build 0)  -->
<!DOCTYPE svg PUBLIC "-//W3C//DTD SVG 1.1//EN" "http://www.w3.org/Graphics/SVG/1.1/DTD/svg11.dtd">
<svg version="1.1" id="Layer_1" xmlns="http://www.w3.org/2000/svg" xmlns:xlink="http://www.w3.org/1999/xlink" x="0px" y="0px"
	 width="212.598px" height="212.599px" viewBox="0 0 212.598 212.599" enable-background="new 0 0 212.598 212.599"
	 xml:space="preserve">
<g>
	<path fill="#1B377A" d="M105.76,48.73c-32.216,0-58.329,26.114-58.329,58.329c0,32.214,26.113,58.329,58.329,58.329
		c32.214,0,58.329-26.115,58.329-58.329C164.089,74.845,137.974,48.73,105.76,48.73 M139.79,141.09
		c-9.09,9.09-21.176,14.096-34.03,14.096c-12.855,0-24.941-5.006-34.031-14.096c-9.089-9.09-14.097-21.175-14.097-34.03
		s5.008-24.941,14.097-34.031c9.09-9.089,21.176-14.095,34.031-14.095c12.854,0,24.94,5.006,34.03,14.095
		c9.09,9.09,14.096,21.176,14.096,34.031S148.88,132,139.79,141.09"/>
	<path fill="#1B377A" d="M105.636,34.198c2.816,0,5.102-2.284,5.102-5.102V20.34c0-2.817-2.285-5.102-5.102-5.102
		s-5.102,2.284-5.102,5.102v8.757C100.534,31.914,102.819,34.198,105.636,34.198"/>
	<path fill="#1B377A" d="M47.633,55.784c0.996,0.996,2.302,1.494,3.606,1.494c1.307,0,2.613-0.498,3.608-1.494
		c1.992-1.992,1.992-5.223,0-7.215l-6.192-6.192c-1.992-1.992-5.223-1.992-7.215,0s-1.992,5.222,0,7.215L47.633,55.784z"/>
	<path fill="#1B377A" d="M29.096,101.859h-8.757c-2.817,0-5.102,2.284-5.102,5.102s2.284,5.102,5.102,5.102h8.757
		c2.817,0,5.103-2.284,5.103-5.102S31.913,101.859,29.096,101.859"/>
	<path fill="#1B377A" d="M48.568,157.75l-6.19,6.192c-1.994,1.993-1.994,5.223,0,7.215c0.996,0.996,2.301,1.494,3.606,1.494
		s2.61-0.498,3.606-1.494l6.192-6.192c1.992-1.993,1.992-5.223,0-7.215C53.79,155.758,50.561,155.758,48.568,157.75"/>
	<path fill="#1B377A" d="M106.96,178.399c-2.816,0-5.102,2.284-5.102,5.102v8.758c0,2.817,2.285,5.102,5.102,5.102
		s5.102-2.284,5.102-5.102v-8.758C112.062,180.684,109.776,178.399,106.96,178.399"/>
	<path fill="#1B377A" d="M164.964,156.813c-1.992-1.992-5.223-1.992-7.215,0s-1.992,5.223,0,7.215l6.193,6.192
		c0.996,0.995,2.301,1.493,3.606,1.493s2.61-0.498,3.606-1.493c1.994-1.992,1.994-5.223,0-7.216L164.964,156.813z"/>
	<path fill="#1B377A" d="M192.258,100.535h-8.757c-2.816,0-5.102,2.284-5.102,5.102s2.285,5.102,5.102,5.102h8.757
		c2.817,0,5.103-2.284,5.103-5.102S195.075,100.535,192.258,100.535"/>
	<path fill="#1B377A" d="M160.42,56.343c1.306,0,2.61-0.498,3.606-1.494l6.193-6.193c1.992-1.992,1.992-5.222,0-7.214
		c-1.992-1.993-5.223-1.993-7.215,0l-6.191,6.192c-1.994,1.992-1.994,5.223,0,7.215C157.81,55.845,159.114,56.343,160.42,56.343"/>
</g>
</svg>
