<?xml version="1.0" encoding="utf-8"?>
<!-- Generator: Adobe Illustrator 16.0.0, SVG Export Plug-In . SVG Version: 6.00 Build 0)  -->
<!DOCTYPE svg PUBLIC "-//W3C//DTD SVG 1.1//EN" "http://www.w3.org/Graphics/SVG/1.1/DTD/svg11.dtd">
<svg version="1.1" id="Layer_1" xmlns="http://www.w3.org/2000/svg" xmlns:xlink="http://www.w3.org/1999/xlink" x="0px" y="0px"
	 width="212.598px" height="212.599px" viewBox="0 0 212.598 212.599" enable-background="new 0 0 212.598 212.599"
	 xml:space="preserve">
<path fill="#1B377A" d="M135.173,107.063c0-16.8,8.705-31.567,21.85-40.039c-2.361-2.59-4.95-4.972-7.74-7.103
	c-5.043-3.855-10.731-6.902-16.879-8.956c-5.813-1.944-12.035-2.994-18.5-2.994c-32.213,0-58.328,26.114-58.328,58.327
	c0,32.216,26.115,58.33,58.328,58.33c5.563,0,10.942-0.778,16.039-2.234c6.673-1.906,12.855-4.966,18.319-8.956
	c2.831-2.066,5.466-4.384,7.878-6.916C143.489,137.966,135.173,123.486,135.173,107.063 M127.139,152.583
	c-4.276,1.223-8.729,1.842-13.235,1.842c-12.854,0-24.939-5.006-34.029-14.096c-9.09-9.09-14.096-21.176-14.096-34.031
	s5.006-24.94,14.096-34.029c9.09-9.089,21.175-14.095,34.029-14.095c5.231,0,10.367,0.83,15.268,2.469
	c4.365,1.458,8.478,3.53,12.256,6.171c-9.981,10.468-16.114,24.641-16.114,40.247c0,15.148,5.778,28.944,15.246,39.313
	C136.425,149.133,131.92,151.218,127.139,152.583"/>
</svg>
