<?xml version="1.0" encoding="utf-8"?>
<!-- Generator: Adobe Illustrator 16.0.0, SVG Export Plug-In . SVG Version: 6.00 Build 0)  -->
<!DOCTYPE svg PUBLIC "-//W3C//DTD SVG 1.1//EN" "http://www.w3.org/Graphics/SVG/1.1/DTD/svg11.dtd">
<svg version="1.1" id="Layer_1" xmlns="http://www.w3.org/2000/svg" xmlns:xlink="http://www.w3.org/1999/xlink" x="0px" y="0px"
	 width="212.598px" height="212.599px" viewBox="0 0 212.598 212.599" enable-background="new 0 0 212.598 212.599"
	 xml:space="preserve">
<g>
	<defs>
		<rect id="SVGID_1_" x="-1578.364" y="-1127.122" width="1400" height="4680.32"/>
	</defs>
	<clipPath id="SVGID_2_">
		<use xlink:href="#SVGID_1_"  overflow="visible"/>
	</clipPath>
	<g clip-path="url(#SVGID_2_)">
		<defs>
			<rect id="SVGID_3_" x="-1578.364" y="-1127.124" width="1400" height="4680.322"/>
		</defs>
		<clipPath id="SVGID_4_">
			<use xlink:href="#SVGID_3_"  overflow="visible"/>
		</clipPath>
		<path clip-path="url(#SVGID_4_)" fill="#1B377A" d="M-1203.189,11.182c-32.215,0-58.329,26.114-58.329,58.329
			c0,32.214,26.114,58.329,58.329,58.329c32.214,0,58.329-26.115,58.329-58.329C-1144.861,37.296-1170.976,11.182-1203.189,11.182
			 M-1169.16,103.541c-9.09,9.09-21.175,14.096-34.03,14.096c-12.855,0-24.941-5.006-34.031-14.096
			c-9.089-9.09-14.096-21.175-14.096-34.03c0-12.856,5.007-24.941,14.096-34.031c9.09-9.089,21.176-14.095,34.031-14.095
			c12.855,0,24.94,5.006,34.03,14.095c9.09,9.09,14.096,21.175,14.096,34.031C-1155.063,82.366-1160.07,94.451-1169.16,103.541"/>
		<path clip-path="url(#SVGID_4_)" fill="#1B377A" d="M-1203.313-3.351c2.817,0,5.102-2.284,5.102-5.102v-8.756
			c0-2.817-2.285-5.102-5.102-5.102s-5.102,2.284-5.102,5.102v8.756C-1208.416-5.635-1206.13-3.351-1203.313-3.351"/>
		<path clip-path="url(#SVGID_4_)" fill="#1B377A" d="M-1261.316,18.235c0.996,0.996,2.302,1.494,3.607,1.494
			c1.306,0,2.612-0.498,3.608-1.494c1.992-1.992,1.992-5.223,0-7.215l-6.193-6.192c-1.992-1.992-5.222-1.992-7.214,0
			c-1.993,1.992-1.993,5.222,0,7.215L-1261.316,18.235z"/>
		<path clip-path="url(#SVGID_4_)" fill="#1B377A" d="M-1279.854,64.311h-8.757c-2.817,0-5.101,2.284-5.101,5.102
			s2.284,5.102,5.101,5.102h8.757c2.817,0,5.102-2.284,5.102-5.102S-1277.037,64.311-1279.854,64.311"/>
		<path clip-path="url(#SVGID_4_)" fill="#1B377A" d="M-1260.381,120.201l-6.191,6.192c-1.993,1.994-1.993,5.223,0,7.215
			c0.997,0.996,2.301,1.494,3.607,1.494s2.611-0.498,3.607-1.494l6.192-6.192c1.992-1.993,1.992-5.223,0-7.215
			C-1255.16,118.209-1258.389,118.209-1260.381,120.201"/>
		<path clip-path="url(#SVGID_4_)" fill="#1B377A" d="M-1201.989,140.851c-2.817,0-5.102,2.284-5.102,5.102v8.757
			c0,2.818,2.285,5.102,5.102,5.102s5.102-2.284,5.102-5.102v-8.757C-1196.887,143.135-1199.172,140.851-1201.989,140.851"/>
		<path clip-path="url(#SVGID_4_)" fill="#1B377A" d="M-1143.985,119.265c-1.992-1.992-5.223-1.992-7.215,0
			c-1.992,1.992-1.992,5.223,0,7.215l6.193,6.192c0.996,0.996,2.301,1.494,3.607,1.494s2.611-0.498,3.607-1.494
			c1.993-1.992,1.993-5.223,0-7.215L-1143.985,119.265z"/>
		<path clip-path="url(#SVGID_4_)" fill="#1B377A" d="M-1116.691,62.986h-8.757c-2.817,0-5.101,2.284-5.101,5.102
			s2.284,5.102,5.101,5.102h8.757c2.817,0,5.102-2.284,5.102-5.102S-1113.875,62.986-1116.691,62.986"/>
		<path clip-path="url(#SVGID_4_)" fill="#1B377A" d="M-1148.529,18.794c1.306,0,2.611-0.498,3.607-1.494l6.193-6.193
			c1.992-1.992,1.992-5.222,0-7.214c-1.992-1.993-5.223-1.993-7.215,0l-6.192,6.192c-1.993,1.992-1.993,5.223,0,7.215
			C-1151.14,18.296-1149.835,18.794-1148.529,18.794"/>
		<path clip-path="url(#SVGID_4_)" fill="#1B377A" d="M-748.54,2980.325c-0.498,0.084-0.992,0.184-1.479,0.296
			C-749.515,2980.556-749.019,2980.458-748.54,2980.325"/>
		<path clip-path="url(#SVGID_4_)" fill="#1B377A" d="M-858.134,2981.824c0.964,0.834,2.151,1.241,3.334,1.241
			c1.43,0,2.854-0.598,3.861-1.765l65.797-76.118c1.843-2.13,1.608-5.352-0.523-7.194c-2.13-1.843-5.352-1.608-7.195,0.522
			l-65.797,76.118C-860.5,2976.76-860.266,2979.981-858.134,2981.824"/>
		<path clip-path="url(#SVGID_4_)" fill="#1B377A" d="M-792.897,2954.557l-59.311,68.489c-0.201-22.316-18.409-40.41-40.772-40.41
			c-1.843,0-3.654,0.135-5.433,0.372l60.114-69.358c1.844-2.128,1.615-5.35-0.515-7.195c-2.127-1.844-5.349-1.615-7.196,0.515
			l-78.399,90.455c-0.08,0.093-0.134,0.197-0.207,0.295c-5.713,7.018-9.146,15.964-9.146,25.699
			c0,22.486,18.295,40.782,40.782,40.782c11.126,0,21.22-4.483,28.586-11.731c0.327-0.233,0.637-0.499,0.911-0.816l78.299-90.417
			c1.845-2.13,1.613-5.351-0.517-7.195C-787.831,2952.194-791.053,2952.427-792.897,2954.557 M-923.56,3023.418
			c0-16.861,13.718-30.579,30.579-30.579c16.86,0,30.579,13.718,30.579,30.579c0,16.86-13.719,30.579-30.579,30.579
			C-909.842,3053.997-923.56,3040.278-923.56,3023.418"/>
		<path clip-path="url(#SVGID_4_)" fill="#1B377A" d="M-504.833,2993.564c-2.254-1.928-3.547-4.646-3.547-7.46v-63.045
			c0-5.414-2.116-10.512-5.96-14.354c-3.841-3.842-8.938-5.958-14.353-5.958c-0.235,0-0.475,0.004-0.71,0.013
			c-5.34,0.185-10.313,2.443-14.001,6.357c-3.612,3.835-5.602,8.85-5.602,14.121v62.662c0,2.947-1.279,5.729-3.51,7.631
			c-8.391,7.155-13.09,17.585-12.893,28.612c0.171,9.551,4.014,18.544,10.822,25.326c6.807,6.781,15.815,10.588,25.366,10.724
			c0.175,0.002,0.35,0.004,0.525,0.004c4.953,0,9.764-0.974,14.297-2.892c4.374-1.85,8.3-4.496,11.669-7.866
			c3.369-3.367,6.014-7.295,7.865-11.668c1.917-4.533,2.89-9.343,2.89-14.296C-491.973,3010.728-496.66,3000.555-504.833,2993.564
			 M-528.693,3047.995c-0.128,0-0.253-0.001-0.382-0.003c-14.24-0.2-25.876-11.79-26.131-26.029
			c-0.147-8.278,3.496-15.708,9.313-20.667c4.505-3.843,7.091-9.474,7.091-15.395v-62.662c0-5.477,4.282-10.093,9.755-10.282
			c0.119-0.004,0.237-0.006,0.355-0.006c2.779,0,5.308,1.138,7.14,2.97s2.97,4.359,2.97,7.139v63.045
			c0,5.876,2.653,11.396,7.118,15.215c5.686,4.862,9.289,12.089,9.289,20.157C-502.176,3036.121-514.048,3047.995-528.693,3047.995"
			/>
		<path clip-path="url(#SVGID_4_)" fill="#1B377A" d="M-523.591,3009.747v-72.984c0-2.818-2.284-5.102-5.102-5.102
			s-5.102,2.283-5.102,5.102v72.984c-4.576,1.977-7.78,6.524-7.78,11.826c0,7.113,5.768,12.882,12.88,12.882
			c7.115,0,12.883-5.769,12.883-12.882C-515.812,3016.271-519.016,3011.724-523.591,3009.747"/>
		<path clip-path="url(#SVGID_4_)" fill="#1B377A" d="M-814.656,3206.972c-11.88-4.448-27.567-6.899-44.175-6.899
			s-32.295,2.451-44.175,6.899c-13.458,5.04-20.869,12.373-20.869,20.65c0,8.276,7.411,15.609,20.869,20.649
			c11.88,4.448,27.567,6.898,44.175,6.898s32.295-2.45,44.175-6.898c13.458-5.04,20.869-12.373,20.869-20.649
			C-793.787,3219.345-801.198,3212.012-814.656,3206.972 M-858.831,3244.967c-33.478,0-54.841-10.272-54.841-17.345
			s21.363-17.346,54.841-17.346c33.478,0,54.841,10.273,54.841,17.346S-825.354,3244.967-858.831,3244.967"/>
		<path clip-path="url(#SVGID_4_)" fill="#1B377A" d="M-828.208,3272.609c2.502-1.345,3.439-4.462,2.096-6.963
			c-1.344-2.502-4.464-3.44-6.963-2.097c-8.159,4.385-21.8,7.001-36.488,7.001c-22.83,0-38.664-6.374-42.505-12.671
			c-1.479-2.424-4.644-3.188-7.069-1.71c-2.424,1.479-3.19,4.644-1.711,7.068c6.524,10.689,26.654,17.599,51.285,17.599
			C-853.011,3280.837-837.938,3277.838-828.208,3272.609"/>
		<path clip-path="url(#SVGID_4_)" fill="#1B377A" d="M-815.061,3286.893c-2.317-1.631-5.511-1.072-7.137,1.242
			c-2.276,3.236-11.47,8.051-27.466,8.051c-9.332,0-18.088-1.611-23.422-4.311c-2.522-1.278-5.605-0.267-6.883,2.259
			c-1.278,2.524-0.267,5.606,2.258,6.883c6.799,3.439,17.022,5.413,28.047,5.413c16.729,0,30.464-4.751,35.845-12.4
			C-812.19,3291.716-812.747,3288.521-815.061,3286.893"/>
		<path clip-path="url(#SVGID_4_)" fill="#1B377A" d="M-838.357,3314.416c-2.512-1.279-5.584-0.28-6.861,2.229
			c-3.442,6.76-7.006,13.703-10.592,20.635c-0.859,1.66-2.399,1.84-3.021,1.84c-0.622,0-2.162-0.18-3.021-1.84
			c-3.509-6.783-7.039-13.659-10.491-20.436c-1.281-2.511-4.352-3.51-6.863-2.23c-2.509,1.28-3.507,4.353-2.229,6.863
			c3.462,6.793,7.002,13.688,10.521,20.491c2.347,4.536,6.977,7.354,12.083,7.354s9.736-2.818,12.082-7.354
			c3.597-6.951,7.17-13.913,10.621-20.692C-834.849,3318.767-835.848,3315.693-838.357,3314.416"/>
		<path clip-path="url(#SVGID_4_)" fill="#1B377A" d="M-1163.443,3243.304h-9.396l6.644-6.645c1.992-1.992,1.992-5.222,0-7.214
			c-1.992-1.993-5.223-1.993-7.215,0l-6.643,6.644v-9.396c0-2.818-2.285-5.102-5.102-5.102s-5.101,2.283-5.101,5.102v9.396
			l-6.645-6.645c-1.992-1.993-5.223-1.993-7.215,0c-1.992,1.992-1.992,5.222,0,7.214l6.644,6.645h-9.395
			c-2.817,0-5.101,2.284-5.101,5.102s2.284,5.102,5.101,5.102h9.395l-6.644,6.644c-1.992,1.992-1.992,5.222,0,7.215
			c0.996,0.996,2.302,1.494,3.608,1.494c1.305,0,2.611-0.498,3.607-1.494l6.645-6.645v9.396c0,2.818,2.284,5.103,5.101,5.103
			s5.102-2.284,5.102-5.103v-9.395l6.643,6.644c0.996,0.996,2.302,1.494,3.608,1.494c1.305,0,2.611-0.498,3.607-1.494
			c1.992-1.993,1.992-5.223,0-7.215l-6.644-6.644h9.396c2.817,0,5.102-2.284,5.102-5.102S-1160.626,3243.304-1163.443,3243.304"/>
		<path clip-path="url(#SVGID_4_)" fill="#1B377A" d="M-1186.38,3284.358c-0.054-0.047-0.107-0.092-0.158-0.142
			c-0.184-0.159-0.36-0.329-0.529-0.5c-0.341-0.276-0.716-0.512-1.122-0.698c-0.645-0.293-1.361-0.456-2.117-0.456
			c-2.576,0-4.706,1.902-5.058,4.382c-0.002,0.006-0.002,0.01-0.002,0.016c-0.003,0.007-0.005,0.016-0.003,0.025h-0.002
			c-0.031,0.225-0.046,0.454-0.046,0.688c0,1.389,0.551,2.646,1.449,3.567c0.099,0.098,0.201,0.193,0.303,0.288
			c0.212,0.199,0.431,0.392,0.653,0.584c5.686,4.864,9.29,12.09,9.29,20.158c0,14.645-11.874,26.518-26.517,26.518
			c-0.128,0-0.256,0-0.383-0.003c-14.241-0.198-25.877-11.789-26.133-26.028c-0.147-8.278,3.498-15.71,9.313-20.669
			c4.505-3.84,7.091-9.472,7.091-15.392v-62.664c0-5.477,4.283-10.091,9.757-10.282c0.117-0.003,0.235-0.005,0.355-0.005
			c2.779,0,5.307,1.137,7.139,2.968c1.252,1.255,2.181,2.836,2.64,4.601c0.211,2.637,2.418,4.708,5.112,4.708
			c2.831,0,5.127-2.296,5.127-5.13c0-0.018,0-0.038-0.003-0.056c0.003,0,0.003,0,0.005-0.003h-0.005
			c-0.638-4.268-2.546-8.215-5.663-11.332c-3.841-3.842-8.94-5.959-14.352-5.959c-0.238,0-0.475,0.004-0.71,0.012
			c-5.341,0.188-10.312,2.444-14.001,6.36c-3.614,3.833-5.603,8.848-5.603,14.118v62.664c0,2.945-1.279,5.728-3.508,7.631
			c-8.392,7.155-13.09,17.585-12.894,28.611c0.171,9.551,4.015,18.545,10.823,25.326c6.805,6.78,15.814,10.588,25.367,10.724
			c0.174,0.003,0.347,0.003,0.526,0.003c4.95,0,9.761-0.973,14.296-2.891c4.372-1.849,8.3-4.496,11.667-7.863
			c3.37-3.37,6.015-7.295,7.867-11.67c1.918-4.532,2.89-9.344,2.89-14.297C-1173.519,3301.522-1178.208,3291.35-1186.38,3284.358"/>
		<path clip-path="url(#SVGID_4_)" fill="#1B377A" d="M-877.853,1193.328c8.349,0,16.549,2.206,23.712,6.379
			c6.964,4.058,12.816,9.869,16.925,16.807c4.287,7.238,12.117,11.735,20.434,11.735c1.292,0,2.594-0.109,3.87-0.323
			c1.65-0.278,3.345-0.418,5.036-0.418c8.042,0,15.603,3.133,21.288,8.821s8.814,13.25,8.811,21.293
			c-0.009,16.588-13.685,30.083-30.484,30.083h-117.842c-3.697,0-7.194-1.47-9.849-4.14c-2.553-2.565-3.949-5.902-3.931-9.395
			c0.022-4.249,1.99-8.151,5.397-10.707c6.379-4.783,9.934-12.41,9.512-20.403c-0.045-0.842-0.067-1.698-0.067-2.544
			c0-12.533,4.817-24.317,13.564-33.183c8.747-8.866,20.463-13.839,32.99-14.002
			C-878.275,1193.329-878.063,1193.328-877.853,1193.328 M-877.853,1183.125c-0.255,0-0.512,0.002-0.767,0.005
			c-31.489,0.411-56.625,25.894-56.625,57.387c0,1.034,0.027,2.063,0.081,3.083c0.242,4.572-1.779,8.954-5.443,11.701
			c-5.725,4.292-9.44,11.119-9.48,18.815c-0.07,13.086,10.896,23.792,23.982,23.792h117.842c22.313,0,40.676-17.968,40.687-40.28
			c0.012-22.268-18.036-40.323-40.301-40.323c-2.292,0-4.539,0.191-6.727,0.558c-0.729,0.123-1.459,0.184-2.18,0.184
			c-4.733,0-9.184-2.561-11.654-6.732C-838.431,1194.438-856.819,1183.125-877.853,1183.125"/>
		<path clip-path="url(#SVGID_4_)" fill="#1B377A" d="M-565.073,1465.999c2.817,0,5.102-2.284,5.102-5.102v-6.185
			c0-2.817-2.284-5.103-5.102-5.103s-5.102,2.285-5.102,5.103v6.185C-570.175,1463.715-567.891,1465.999-565.073,1465.999"/>
		<path clip-path="url(#SVGID_4_)" fill="#1B377A" d="M-607.098,1480.805c0.996,0.996,2.302,1.494,3.607,1.494
			s2.611-0.498,3.607-1.494c1.992-1.992,1.992-5.224,0-7.215l-4.373-4.373c-1.992-1.992-5.223-1.992-7.215,0
			c-1.992,1.991-1.992,5.223,0,7.215L-607.098,1480.805z"/>
		<path clip-path="url(#SVGID_4_)" fill="#1B377A" d="M-619.129,1510.786h-6.185c-2.817,0-5.102,2.284-5.102,5.102
			s2.284,5.102,5.102,5.102h6.185c2.817,0,5.103-2.284,5.103-5.102S-616.312,1510.786-619.129,1510.786"/>
		<path clip-path="url(#SVGID_4_)" fill="#1B377A" d="M-606.437,1550.696l-4.373,4.373c-1.992,1.992-1.992,5.223,0,7.215
			c0.996,0.996,2.302,1.494,3.607,1.494s2.611-0.498,3.607-1.494l4.373-4.373c1.992-1.992,1.992-5.223,0-7.215
			S-604.444,1548.704-606.437,1550.696"/>
		<path clip-path="url(#SVGID_4_)" fill="#1B377A" d="M-526.384,1481.638c1.306,0,2.611-0.498,3.607-1.494l4.373-4.374
			c1.993-1.992,1.993-5.223,0-7.215c-1.991-1.992-5.222-1.992-7.214,0l-4.374,4.374c-1.992,1.992-1.992,5.223,0,7.215
			C-528.995,1481.14-527.689,1481.638-526.384,1481.638"/>
		<path clip-path="url(#SVGID_4_)" fill="#1B377A" d="M-458.884,1515.728c-1.814,0-3.594,0.152-5.327,0.443
			c-0.576,0.097-1.153,0.144-1.726,0.144c-3.748,0-7.271-2.027-9.229-5.33c-7.913-13.362-22.475-22.322-39.13-22.322
			c-0.201,0-0.404,0.001-0.606,0.005c-5.794,0.075-11.311,1.235-16.375,3.266c-7.478-10.396-19.672-17.17-33.455-17.17
			c-22.751,0-41.193,18.441-41.193,41.192c0,20.611,15.139,37.675,34.901,40.706c-0.296,1.306-0.462,2.66-0.47,4.053
			c-0.055,10.362,8.629,18.84,18.99,18.84h93.313c17.668,0,32.209-14.229,32.218-31.896
			C-426.962,1530.025-441.254,1515.728-458.884,1515.728 M-595.723,1515.955c0-8.276,3.224-16.06,9.077-21.913
			s13.636-9.078,21.914-9.078s16.061,3.225,21.914,9.078c0.886,0.887,1.693,1.828,2.456,2.797
			c-11.738,8.209-19.379,21.823-19.379,37.27c0,0.819,0.021,1.633,0.064,2.44c0.191,3.62-1.41,7.091-4.311,9.267
			c-0.467,0.349-0.912,0.725-1.344,1.117c-8.053-0.151-15.604-3.352-21.315-9.063
			C-592.499,1532.017-595.723,1524.234-595.723,1515.955 M-459.189,1569.351h-93.313c-2.357,0-4.592-0.941-6.292-2.651
			c-1.622-1.629-2.507-3.735-2.495-5.931c0.015-2.694,1.263-5.169,3.425-6.791c5.618-4.213,8.751-10.93,8.378-17.967
			c-0.033-0.629-0.05-1.27-0.05-1.902c0-9.362,3.598-18.164,10.129-24.784c6.53-6.62,15.282-10.333,24.64-10.455
			c0.158-0.002,0.316-0.003,0.474-0.003c6.236,0,12.359,1.646,17.707,4.762c5.203,3.031,9.575,7.372,12.645,12.556
			c3.774,6.374,10.675,10.334,18.007,10.334c1.141,0,2.29-0.097,3.417-0.285c1.191-0.2,2.414-0.302,3.636-0.302
			c5.801,0,11.254,2.26,15.354,6.361c4.102,4.104,6.358,9.559,6.355,15.36C-437.181,1559.617-447.057,1569.351-459.189,1569.351"/>
		<path clip-path="url(#SVGID_4_)" fill="#1B377A" d="M-859.493,14.76c2.817,0,5.102-2.284,5.102-5.102V0.901
			c0-2.817-2.284-5.102-5.102-5.102s-5.103,2.284-5.103,5.102v8.756C-864.596,12.476-862.311,14.76-859.493,14.76"/>
		<path clip-path="url(#SVGID_4_)" fill="#1B377A" d="M-917.497,36.346c0.996,0.996,2.302,1.494,3.607,1.494
			c1.306,0,2.612-0.498,3.608-1.494c1.992-1.992,1.992-5.223,0-7.215l-6.193-6.192c-1.992-1.992-5.222-1.992-7.214,0
			c-1.993,1.992-1.993,5.222,0,7.215L-917.497,36.346z"/>
		<path clip-path="url(#SVGID_4_)" fill="#1B377A" d="M-930.932,87.522c0-2.817-2.284-5.102-5.102-5.102h-8.756
			c-2.818,0-5.102,2.285-5.102,5.102c0,2.817,2.284,5.102,5.102,5.102h8.756C-933.216,92.624-930.932,90.339-930.932,87.522"/>
		<path clip-path="url(#SVGID_4_)" fill="#1B377A" d="M-789.767,111.499h-16.379c3.275-7.289,5.104-15.369,5.104-23.878
			c0-32.215-26.114-58.329-58.328-58.329c-32.215,0-58.331,26.114-58.331,58.329c0,8.509,1.83,16.589,5.106,23.878h-15.405
			c-2.817,0-5.101,2.284-5.101,5.102s2.284,5.102,5.101,5.102h45.377c2.817,0,5.102-2.284,5.102-5.102s-2.285-5.102-5.102-5.102
			h-18.546c-4.124-7.191-6.328-15.364-6.328-23.878c0-12.855,5.005-24.94,14.095-34.03c9.09-9.09,21.176-14.096,34.031-14.096
			c12.854,0,24.939,5.006,34.029,14.096s14.096,21.175,14.096,34.03c0,8.514-2.204,16.687-6.328,23.878h-17.35
			c-2.817,0-5.102,2.284-5.102,5.102s2.284,5.102,5.102,5.102h45.155c2.817,0,5.102-2.284,5.102-5.102
			S-786.949,111.499-789.767,111.499"/>
		<path clip-path="url(#SVGID_4_)" fill="#1B377A" d="M-772.871,81.097h-8.758c-2.817,0-5.102,2.284-5.102,5.102
			s2.284,5.102,5.102,5.102h8.758c2.817,0,5.103-2.284,5.103-5.102S-770.054,81.097-772.871,81.097"/>
		<path clip-path="url(#SVGID_4_)" fill="#1B377A" d="M-804.709,36.903c1.306,0,2.611-0.498,3.607-1.494l6.192-6.193
			c1.992-1.992,1.992-5.222,0-7.214c-1.992-1.993-5.223-1.993-7.215,0l-6.192,6.192c-1.992,1.992-1.992,5.223,0,7.215
			C-807.32,36.405-806.015,36.903-804.709,36.903"/>
		<path clip-path="url(#SVGID_4_)" fill="#1B377A" d="M-843.884,98.218l-12.806-9.189c-0.002-0.001-0.004-0.003-0.006-0.004
			c-0.003-0.002-0.006-0.004-0.008-0.006c-0.001-0.001-0.002-0.001-0.002-0.002c-0.825-0.586-1.779-0.9-2.743-0.941h-0.003h-0.001
			c-0.313-0.012-0.629,0.003-0.941,0.048c-0.005,0-0.007,0.001-0.007,0.001c-0.691,0.101-1.367,0.344-1.98,0.729
			c-0.098,0.062-0.194,0.127-0.288,0.194l-12.775,9.169c-2.289,1.643-2.813,4.83-1.17,7.119c1.642,2.289,4.829,2.812,7.118,1.17
			l4.73-3.395v29.348c0,2.817,2.284,5.102,5.101,5.102c2.818,0,5.103-2.284,5.103-5.102v-29.348l4.729,3.395
			c2.291,1.644,5.478,1.118,7.119-1.17c0.646-0.901,0.958-1.941,0.957-2.972C-841.757,100.778-842.496,99.214-843.884,98.218"/>
		<path clip-path="url(#SVGID_4_)" fill="#1B377A" d="M-529.355,15.015c2.817,0,5.102-2.284,5.102-5.102V1.156
			c0-2.817-2.284-5.102-5.102-5.102s-5.103,2.284-5.103,5.102v8.756C-534.458,12.73-532.173,15.015-529.355,15.015"/>
		<path clip-path="url(#SVGID_4_)" fill="#1B377A" d="M-587.359,36.601c0.997,0.996,2.302,1.494,3.607,1.494
			s2.611-0.498,3.607-1.494c1.992-1.993,1.992-5.223,0-7.215l-6.192-6.191c-1.994-1.992-5.223-1.992-7.215,0
			c-1.992,1.993-1.992,5.222,0,7.215L-587.359,36.601z"/>
		<path clip-path="url(#SVGID_4_)" fill="#1B377A" d="M-600.794,87.777c0-2.817-2.284-5.102-5.102-5.102h-8.757
			c-2.817,0-5.102,2.285-5.102,5.102c0,2.817,2.284,5.102,5.102,5.102h8.757C-603.078,92.879-600.794,90.594-600.794,87.777"/>
		<path clip-path="url(#SVGID_4_)" fill="#1B377A" d="M-459.629,111.755h-16.38c3.275-7.289,5.105-15.369,5.105-23.879
			c0-32.215-26.114-58.329-58.33-58.329c-32.213,0-58.328,26.114-58.328,58.329c0,8.51,1.83,16.59,5.106,23.879h-15.405
			c-2.817,0-5.102,2.284-5.102,5.102s2.284,5.102,5.102,5.102h45.377c2.817,0,5.102-2.284,5.102-5.102s-2.284-5.102-5.102-5.102
			h-18.546c-4.125-7.191-6.329-15.364-6.329-23.879c0-12.855,5.006-24.94,14.096-34.03s21.176-14.096,34.029-14.096
			c12.856,0,24.941,5.006,34.031,14.096s14.096,21.175,14.096,34.03c0,8.515-2.204,16.687-6.329,23.879h-17.35
			c-2.817,0-5.102,2.284-5.102,5.102s2.284,5.102,5.102,5.102h45.156c2.817,0,5.102-2.284,5.102-5.102
			S-456.812,111.755-459.629,111.755"/>
		<path clip-path="url(#SVGID_4_)" fill="#1B377A" d="M-442.733,81.352h-8.758c-2.817,0-5.102,2.284-5.102,5.102
			s2.284,5.102,5.102,5.102h8.758c2.816,0,5.102-2.284,5.102-5.102S-439.917,81.352-442.733,81.352"/>
		<path clip-path="url(#SVGID_4_)" fill="#1B377A" d="M-474.571,37.159c1.306,0,2.611-0.498,3.607-1.494l6.192-6.193
			c1.992-1.992,1.992-5.222,0-7.214c-1.992-1.993-5.223-1.993-7.215,0l-6.192,6.192c-1.992,1.992-1.992,5.223,0,7.215
			C-477.183,36.661-475.877,37.159-474.571,37.159"/>
		<path clip-path="url(#SVGID_4_)" fill="#1B377A" d="M-519.694,125.504l-4.73,3.394V99.55c0-2.817-2.284-5.102-5.102-5.102
			s-5.102,2.285-5.102,5.102v29.348l-4.73-3.394c-2.288-1.643-5.476-1.118-7.118,1.171s-1.119,5.475,1.171,7.118l12.783,9.173
			c0.057,0.042,0.115,0.082,0.174,0.121c0.331,0.22,0.683,0.397,1.045,0.532c0.559,0.208,1.158,0.319,1.773,0.319
			c0.182,0,0.365-0.01,0.549-0.03c0.271-0.029,0.542-0.08,0.807-0.153c0.616-0.168,1.182-0.447,1.677-0.814l12.688-9.104
			c0.041-0.029,0.063-0.045,0.063-0.045c2.289-1.643,2.813-4.829,1.171-7.118C-514.22,124.385-517.407,123.86-519.694,125.504"/>
		<path clip-path="url(#SVGID_4_)" fill="#1B377A" d="M-1202.256,345.973c2.817,0,5.102-2.284,5.102-5.102v-8.756
			c0-2.817-2.285-5.102-5.102-5.102s-5.102,2.284-5.102,5.102v8.756C-1207.358,343.688-1205.073,345.973-1202.256,345.973"/>
		<path clip-path="url(#SVGID_4_)" fill="#1B377A" d="M-1260.26,367.559c0.997,0.996,2.302,1.494,3.607,1.494
			c1.306,0,2.612-0.498,3.608-1.494c1.992-1.993,1.992-5.223,0-7.215l-6.193-6.191c-1.994-1.992-5.222-1.992-7.214,0
			c-1.993,1.993-1.993,5.222,0,7.215L-1260.26,367.559z"/>
		<path clip-path="url(#SVGID_4_)" fill="#1B377A" d="M-1147.472,368.117c1.306,0,2.611-0.498,3.607-1.494l6.193-6.193
			c1.992-1.992,1.992-5.222,0-7.214c-1.992-1.993-5.223-1.993-7.215,0l-6.192,6.192c-1.993,1.992-1.993,5.223,0,7.215
			C-1150.083,367.619-1148.778,368.117-1147.472,368.117"/>
		<path clip-path="url(#SVGID_4_)" fill="#1B377A" d="M-1186.647,388.108l-12.805-9.189c-0.872-0.626-1.891-0.944-2.914-0.957
			c-0.766,0-1.635,0.176-2.39,0.563c-0.252,0.13-0.491,0.278-0.714,0.444l-12.737,9.14c-2.29,1.643-2.813,4.829-1.17,7.118
			c1.641,2.289,4.829,2.813,7.118,1.171l4.73-3.393v29.347c0,2.817,2.284,5.102,5.102,5.102c2.817,0,5.101-2.284,5.101-5.102
			v-29.349l4.73,3.395c2.292,1.644,5.476,1.119,7.119-1.17S-1184.358,389.751-1186.647,388.108"/>
		<path clip-path="url(#SVGID_4_)" fill="#1B377A" d="M-1136.417,396.335h-11.898c-8.807-21.042-29.581-35.83-53.818-35.83
			c-24.239,0-45.02,14.787-53.826,35.83h-12.926c-2.817,0-5.101,2.284-5.101,5.102s2.284,5.102,5.101,5.102h39.877
			c2.818,0,5.102-2.284,5.102-5.102s-2.284-5.102-5.102-5.102h-15.679c2.223-4.192,5.073-8.081,8.523-11.531
			c9.09-9.09,21.176-14.096,34.031-14.096s24.94,5.006,34.03,14.096c3.451,3.45,6.3,7.339,8.523,11.531h-16.883
			c-2.817,0-5.101,2.284-5.101,5.102s2.284,5.102,5.101,5.102h40.046c2.817,0,5.102-2.284,5.102-5.102
			S-1133.6,396.335-1136.417,396.335"/>
		<path clip-path="url(#SVGID_4_)" fill="#1B377A" d="M-858.438,345.973c2.818,0,5.103-2.284,5.103-5.102v-8.756
			c0-2.817-2.284-5.102-5.103-5.102c-2.816,0-5.102,2.284-5.102,5.102v8.756C-863.539,343.688-861.254,345.973-858.438,345.973"/>
		<path clip-path="url(#SVGID_4_)" fill="#1B377A" d="M-916.441,367.559c0.996,0.996,2.302,1.494,3.607,1.494
			c1.306,0,2.612-0.498,3.608-1.494c1.992-1.992,1.992-5.223,0-7.215l-6.192-6.191c-1.992-1.992-5.222-1.992-7.214,0
			c-1.993,1.992-1.993,5.222,0,7.215L-916.441,367.559z"/>
		<path clip-path="url(#SVGID_4_)" fill="#1B377A" d="M-803.652,368.117c1.306,0,2.611-0.498,3.607-1.494l6.192-6.193
			c1.992-1.992,1.992-5.222,0-7.214c-1.992-1.993-5.223-1.993-7.215,0l-6.192,6.192c-1.992,1.992-1.992,5.223,0,7.215
			C-806.264,367.619-804.958,368.117-803.652,368.117"/>
		<path clip-path="url(#SVGID_4_)" fill="#1B377A" d="M-848.776,409.018l-4.729,3.395v-29.348c0-2.818-2.285-5.102-5.104-5.102
			c-2.817,0-5.101,2.284-5.101,5.102v29.348l-4.73-3.395c-2.29-1.642-5.476-1.117-7.119,1.17c-1.642,2.289-1.119,5.476,1.17,7.119
			l12.777,9.169c0.093,0.067,0.188,0.133,0.288,0.194c0.586,0.369,1.227,0.608,1.886,0.716c-0.001-0.001,0.003-0.001,0.008,0.001
			c0.273,0.044,0.547,0.066,0.82,0.066c0.068,0,0.135-0.001,0.203-0.004h0.001h0.002c0.967-0.039,1.927-0.353,2.755-0.941
			c0.001-0.001,0.002-0.002,0.003-0.002c0-0.002,0.002-0.003,0.004-0.003c0.003-0.003,0.006-0.005,0.009-0.006l12.806-9.189
			c1.388-0.996,2.127-2.561,2.127-4.147c0.001-1.031-0.311-2.071-0.957-2.972C-843.301,407.897-846.488,407.374-848.776,409.018"/>
		<path clip-path="url(#SVGID_4_)" fill="#1B377A" d="M-792.597,396.335h-11.898c-8.807-21.042-29.58-35.83-53.818-35.83
			c-24.239,0-45.02,14.787-53.825,35.83h-12.926c-2.818,0-5.102,2.284-5.102,5.102s2.284,5.102,5.102,5.102h39.876
			c2.817,0,5.101-2.284,5.101-5.102s-2.284-5.102-5.101-5.102h-15.678c2.222-4.192,5.072-8.081,8.523-11.531
			c9.09-9.09,21.175-14.096,34.03-14.096s24.94,5.006,34.029,14.096c3.452,3.45,6.301,7.339,8.524,11.531h-16.883
			c-2.817,0-5.102,2.284-5.102,5.102s2.284,5.102,5.102,5.102h40.046c2.817,0,5.102-2.284,5.102-5.102
			S-789.779,396.335-792.597,396.335"/>
		<path clip-path="url(#SVGID_4_)" fill="#1B377A" d="M-541.586,295.844c-11.118,0-21.51,3.108-30.354,8.508
			c-1.573,0.961-3.097,1.994-4.567,3.094c-0.49,0.367-0.974,0.741-1.452,1.123c-3.346,2.672-6.391,5.704-9.077,9.039
			c-8.058,10.002-12.88,22.72-12.88,36.565c0,13.843,4.822,26.562,12.88,36.563c2.687,3.334,5.731,6.366,9.077,9.038
			c0.479,0.382,0.962,0.756,1.452,1.123c1.471,1.1,2.994,2.133,4.567,3.093c8.844,5.399,19.235,8.512,30.354,8.512
			c32.214,0,58.328-26.114,58.328-58.328C-483.258,321.958-509.372,295.844-541.586,295.844 M-583.37,330.269
			c0.453-0.788,0.934-1.556,1.429-2.316c0.144-0.22,0.291-0.437,0.438-0.653c0.389-0.575,0.788-1.141,1.2-1.698
			c0.143-0.192,0.282-0.388,0.429-0.579c0.546-0.716,1.108-1.418,1.693-2.102c0.097-0.114,0.2-0.222,0.298-0.334
			c0.502-0.576,1.018-1.139,1.545-1.691c0.187-0.194,0.374-0.385,0.563-0.577c0.509-0.514,1.029-1.016,1.561-1.507
			c0.144-0.132,0.283-0.269,0.429-0.401c0.604-0.543,1.226-1.066,1.856-1.58c3.238,2.639,6.121,5.697,8.579,9.074l-22.042,8.369
			C-584.774,332.913-584.115,331.569-583.37,330.269 M-589.713,354.173c0-2.549,0.227-5.081,0.624-7.581l30.872-11.722
			c1.292,2.954,2.286,6.031,2.963,9.186l-34.346,13.375C-589.673,356.348-589.713,355.262-589.713,354.173 M-584.177,376.553
			c-1.188-2.257-2.213-4.593-3.023-7.005c-0.209-0.621-0.382-1.254-0.565-1.883l33.589-13.078c-0.032,3.712-0.502,7.39-1.37,10.968
			L-584.177,376.553z M-571.93,391.512c-0.63-0.513-1.252-1.037-1.856-1.58c-0.146-0.132-0.287-0.271-0.433-0.406
			c-0.529-0.489-1.049-0.99-1.556-1.502c-0.189-0.191-0.379-0.384-0.565-0.579c-0.528-0.551-1.043-1.114-1.545-1.689
			c-0.098-0.113-0.2-0.221-0.297-0.334c-0.052-0.061-0.099-0.125-0.15-0.187l17.577-6.751
			C-563.674,383.457-567.47,387.88-571.93,391.512 M-507.557,388.202c-9.09,9.09-21.175,14.096-34.029,14.096
			c-7.47,0-14.791-1.73-21.411-5.021c11.696-10.666,19.037-26.027,19.037-43.104c0-17.078-7.342-32.44-19.038-43.107
			c6.617-3.29,13.94-5.02,21.412-5.02c12.854,0,24.939,5.006,34.029,14.095c9.09,9.09,14.096,21.176,14.096,34.032
			S-498.467,379.113-507.557,388.202"/>
		<path clip-path="url(#SVGID_4_)" fill="#1B377A" d="M-541.709,281.312c2.817,0,5.102-2.284,5.102-5.102v-8.757
			c0-2.817-2.284-5.102-5.102-5.102s-5.103,2.284-5.103,5.102v8.757C-546.812,279.027-544.526,281.312-541.709,281.312"/>
		<path clip-path="url(#SVGID_4_)" fill="#1B377A" d="M-599.713,302.897c0.996,0.996,2.302,1.494,3.607,1.494
			s2.611-0.498,3.607-1.494c1.992-1.992,1.992-5.223,0-7.215l-6.192-6.192c-1.992-1.992-5.223-1.992-7.215,0s-1.992,5.222,0,7.215
			L-599.713,302.897z"/>
		<path clip-path="url(#SVGID_4_)" fill="#1B377A" d="M-598.776,404.863l-6.192,6.192c-1.993,1.993-1.993,5.223,0,7.215
			c0.996,0.996,2.302,1.494,3.607,1.494s2.611-0.498,3.606-1.494l6.193-6.192c1.992-1.992,1.992-5.223,0-7.215
			S-596.784,402.871-598.776,404.863"/>
		<path clip-path="url(#SVGID_4_)" fill="#1B377A" d="M-540.385,425.513c-2.817,0-5.103,2.284-5.103,5.102v8.756
			c0,2.818,2.285,5.102,5.103,5.102s5.102-2.284,5.102-5.102v-8.756C-535.283,427.797-537.567,425.513-540.385,425.513"/>
		<path clip-path="url(#SVGID_4_)" fill="#1B377A" d="M-482.381,403.927c-1.992-1.992-5.223-1.992-7.215,0s-1.992,5.223,0,7.215
			l6.192,6.192c0.996,0.996,2.302,1.494,3.606,1.494c1.306,0,2.611-0.498,3.606-1.494c1.993-1.992,1.993-5.223,0-7.215
			L-482.381,403.927z"/>
		<path clip-path="url(#SVGID_4_)" fill="#1B377A" d="M-455.088,347.648h-8.758c-2.817,0-5.102,2.284-5.102,5.102
			s2.284,5.102,5.102,5.102h8.758c2.817,0,5.102-2.284,5.102-5.102S-452.271,347.648-455.088,347.648"/>
		<path clip-path="url(#SVGID_4_)" fill="#1B377A" d="M-486.925,303.455c1.306,0,2.611-0.498,3.607-1.494l6.191-6.193
			c1.992-1.992,1.992-5.222,0-7.214c-1.992-1.993-5.222-1.993-7.214,0l-6.192,6.192c-1.992,1.992-1.992,5.223,0,7.215
			C-489.536,302.957-488.23,303.455-486.925,303.455"/>
		<path clip-path="url(#SVGID_4_)" fill="#1B377A" d="M-1219.286,607.495c-6.086,0-11.955,0.93-17.47,2.662
			c-1.14,0.357-2.265,0.748-3.374,1.172c-3.326,1.271-6.506,2.839-9.51,4.674c-16.779,10.244-27.976,28.724-27.976,49.822
			c0,21.093,11.197,39.574,27.976,49.815c3.004,1.835,6.184,3.403,9.511,4.675c1.109,0.424,2.235,0.814,3.375,1.172
			c5.515,1.734,11.382,2.665,17.468,2.665c32.213,0,58.327-26.114,58.327-58.327
			C-1160.959,633.609-1187.073,607.495-1219.286,607.495 M-1244.321,624.71c0.745-0.455,1.505-0.881,2.273-1.295
			c0.219-0.118,0.441-0.23,0.662-0.346c0.604-0.313,1.213-0.612,1.828-0.899c0.196-0.089,0.389-0.185,0.585-0.273
			c0.734-0.329,1.476-0.637,2.225-0.929c3.419,1.333,6.665,3.073,9.708,5.163l-31.284,11.576
			C-1254.571,632.509-1249.811,628.063-1244.321,624.71 M-1265.798,653.436c0.21-0.79,0.456-1.567,0.705-2.345l46.756-17.3
			c0.945,1.059,1.856,2.147,2.708,3.289c1.088,1.459,2.08,2.967,2.988,4.518l-54.677,21.295
			C-1267.123,659.688-1266.616,656.519-1265.798,653.436 M-1264.377,682.604c-0.173-0.469-0.364-0.932-0.524-1.405
			c-0.662-1.971-1.196-3.985-1.599-6.028c-0.101-0.513-0.17-1.033-0.254-1.549l58.301-22.707c0.948,2.918,1.617,5.931,1.99,9.007
			L-1264.377,682.604z M-1253.502,699.649c-1.51-1.527-2.927-3.148-4.223-4.863c-0.736-0.974-1.422-1.984-2.083-3.014l53.436-20.928
			c-0.397,3.857-1.25,7.615-2.541,11.221L-1253.502,699.649z M-1226.31,705.026c-3.247,2.317-6.746,4.211-10.436,5.649
			c-0.75-0.292-1.493-0.6-2.228-0.93c-0.195-0.087-0.387-0.181-0.58-0.271c-0.618-0.287-1.23-0.588-1.836-0.902
			c-0.22-0.114-0.439-0.227-0.657-0.344c-0.745-0.401-1.483-0.816-2.207-1.257l27.304-10.768
			C-1219.673,699.542-1222.796,702.519-1226.31,705.026 M-1185.257,699.854c-9.089,9.09-21.175,14.096-34.029,14.096
			c-0.649,0-1.296-0.015-1.941-0.04c15.291-10.515,25.324-28.124,25.324-48.084c0-19.961-10.033-37.573-25.323-48.088
			c0.645-0.026,1.292-0.039,1.94-0.039c12.854,0,24.94,5.006,34.029,14.095c9.089,9.09,14.095,21.176,14.095,34.032
			C-1171.162,678.679-1176.168,690.765-1185.257,699.854"/>
		<path clip-path="url(#SVGID_4_)" fill="#1B377A" d="M-1219.41,592.963c2.817,0,5.102-2.284,5.102-5.102v-8.757
			c0-2.817-2.285-5.102-5.102-5.102s-5.102,2.284-5.102,5.102v8.757C-1224.512,590.679-1222.227,592.963-1219.41,592.963"/>
		<path clip-path="url(#SVGID_4_)" fill="#1B377A" d="M-1218.085,737.164c-2.817,0-5.102,2.284-5.102,5.102v8.756
			c0,2.818,2.285,5.102,5.102,5.102s5.102-2.284,5.102-5.102v-8.756C-1212.983,739.448-1215.269,737.164-1218.085,737.164"/>
		<path clip-path="url(#SVGID_4_)" fill="#1B377A" d="M-1160.082,715.578c-1.992-1.992-5.223-1.992-7.215,0
			c-1.992,1.992-1.992,5.223,0,7.215l6.193,6.192c0.996,0.996,2.301,1.494,3.607,1.494s2.611-0.498,3.607-1.494
			c1.993-1.992,1.993-5.223,0-7.215L-1160.082,715.578z"/>
		<path clip-path="url(#SVGID_4_)" fill="#1B377A" d="M-1132.788,659.3h-8.758c-2.817,0-5.101,2.284-5.101,5.102
			s2.284,5.102,5.101,5.102h8.758c2.817,0,5.102-2.284,5.102-5.102S-1129.971,659.3-1132.788,659.3"/>
		<path clip-path="url(#SVGID_4_)" fill="#1B377A" d="M-1164.625,615.106c1.306,0,2.611-0.498,3.607-1.494l6.193-6.193
			c1.992-1.992,1.992-5.222,0-7.214c-1.992-1.993-5.223-1.993-7.215,0l-6.192,6.192c-1.993,1.992-1.993,5.223,0,7.215
			C-1167.236,614.608-1165.932,615.106-1164.625,615.106"/>
		<path clip-path="url(#SVGID_4_)" fill="#1B377A" d="M-858.831,613.414c-32.214,0-58.329,26.115-58.329,58.329
			c0,32.215,26.115,58.329,58.329,58.329c32.215,0,58.329-26.114,58.329-58.329C-800.502,639.529-826.616,613.414-858.831,613.414
			 M-814.931,691.49l-61.669,24.994c-3.766-1.495-7.34-3.464-10.642-5.89l75.653-29.628
			C-812.291,684.609-813.417,688.134-814.931,691.49 M-826.127,707.037c-8.653,8.033-19.768,12.54-31.598,12.806L-826.127,707.037z
			 M-815.755,650.259l-89.353,34.731c-0.923-3.242-1.506-6.596-1.731-10.02l85.74-33.09
			C-819.017,644.501-817.23,647.306-815.755,650.259 M-903.033,652.675l64.435-24.618c3.404,1.579,6.623,3.568,9.604,5.934
			l-77.306,29.834C-905.664,659.967-904.567,656.229-903.033,652.675 M-858.831,623.617c1.005,0,2.004,0.041,2.999,0.103
			l-37.259,14.234c0.078-0.079,0.151-0.162,0.23-0.241C-883.771,628.623-871.687,623.617-858.831,623.617 M-901.287,694.452
			l89.099-34.633c0.812,3.199,1.293,6.501,1.434,9.864l-84.761,33.196C-897.748,700.256-899.685,697.436-901.287,694.452"/>
		<path clip-path="url(#SVGID_4_)" fill="#1B377A" d="M-528.691,613.415c-6.466,0-12.688,1.05-18.501,2.994
			c-23.147,7.733-39.829,29.586-39.829,55.333c0,3.331,0.279,6.597,0.815,9.776c0.805,4.769,2.189,9.341,4.075,13.641
			c0.314,0.717,0.644,1.426,0.985,2.128c1.369,2.804,2.956,5.484,4.739,8.014c0.446,0.633,0.904,1.257,1.374,1.871
			c0.94,1.228,1.929,2.416,2.961,3.565c2.065,2.296,4.311,4.428,6.713,6.371c1.201,0.973,2.442,1.897,3.72,2.773
			c3.193,2.19,6.615,4.07,10.223,5.597c1.442,0.611,2.916,1.166,4.416,1.661c0.75,0.247,1.507,0.48,2.27,0.698
			c5.096,1.457,10.476,2.235,16.039,2.235c32.213,0,58.327-26.114,58.327-58.33C-470.364,639.529-496.479,613.415-528.691,613.415
			 M-544.959,717.043c-0.076-0.027-0.152-0.053-0.228-0.081c-0.835-0.304-1.662-0.63-2.479-0.981
			c-0.151-0.064-0.301-0.135-0.452-0.201c-0.742-0.328-1.478-0.675-2.203-1.04c-0.125-0.064-0.252-0.123-0.377-0.188
			c-0.793-0.408-1.573-0.842-2.344-1.297c-0.172-0.1-0.342-0.204-0.513-0.307c-0.446-0.27-0.883-0.56-1.321-0.845l30.931-11.808
			c-0.143,0.202-0.279,0.405-0.423,0.603c-2.923,3.991-6.426,7.5-10.413,10.428C-537.942,713.647-541.355,715.563-544.959,717.043
			 M-517.271,686.829l-46.568,17.776c-1.085-1.16-2.121-2.369-3.093-3.636c-1.145-1.497-2.189-3.048-3.143-4.642l54.903-21.37
			C-515.375,679.026-516.082,683.004-517.271,686.829 M-574.348,687.042c-1.063-3.179-1.785-6.474-2.162-9.847l58.074-22.342
			c1.195,3.028,2.075,6.173,2.628,9.401L-574.348,687.042z M-576.508,666.261c0.364-3.239,1.048-6.409,2.048-9.474
			c0.154-0.473,0.322-0.94,0.491-1.409l44.435-17.224c1.627,1.597,3.148,3.303,4.543,5.123c0.621,0.811,1.205,1.642,1.77,2.483
			L-576.508,666.261z M-557.142,632.92c0,0,0-0.001,0.002-0.001c0.704-0.517,1.425-1.006,2.152-1.483
			c0.165-0.107,0.33-0.215,0.496-0.321c0.72-0.458,1.449-0.902,2.191-1.321c0.108-0.06,0.219-0.117,0.326-0.177
			c0.677-0.374,1.362-0.731,2.055-1.072c0.158-0.078,0.314-0.158,0.474-0.234c0.763-0.365,1.536-0.711,2.318-1.035
			c0.062-0.025,0.124-0.049,0.186-0.074c2.738,0.984,5.374,2.227,7.895,3.696l-26.908,10.431c0.237-0.29,0.455-0.598,0.699-0.883
			C-562.852,637.639-560.133,635.116-557.142,632.92 M-494.663,705.773c-9.089,9.09-21.174,14.096-34.028,14.096
			c-0.164,0-0.327-0.007-0.491-0.009c14.704-10.59,24.281-27.852,24.281-47.356c0-20.426-10.506-38.39-26.401-48.809
			c0.867-0.046,1.737-0.078,2.611-0.078c12.854,0,24.939,5.006,34.029,14.095c9.089,9.09,14.095,21.175,14.095,34.03
			C-480.567,684.598-485.573,696.684-494.663,705.773"/>
		<path clip-path="url(#SVGID_4_)" fill="#1B377A" d="M-1202.649,909.547c-6.466,0-12.687,1.051-18.5,2.995
			c-6.148,2.052-11.836,5.101-16.879,8.955c-6.104,4.663-11.26,10.503-15.129,17.181c-1.106,1.908-2.106,3.884-2.994,5.921
			c-0.443,1.019-0.859,2.053-1.245,3.101c-0.772,2.096-1.428,4.248-1.959,6.448c-1.062,4.402-1.624,8.998-1.624,13.727
			c0,19.37,9.44,36.534,23.971,47.139c5.464,3.99,11.647,7.05,18.32,8.956c5.096,1.457,10.476,2.235,16.039,2.235
			c32.213,0,58.327-26.114,58.327-58.33C-1144.323,935.661-1170.437,909.547-1202.649,909.547 M-1237.153,1001.412
			c-0.027-0.027-0.055-0.053-0.082-0.08c-0.064-0.067-0.126-0.136-0.19-0.203c-0.521-0.545-1.028-1.104-1.523-1.673
			c-0.112-0.129-0.226-0.256-0.336-0.386c-0.524-0.614-1.033-1.241-1.526-1.881c-0.097-0.126-0.19-0.254-0.287-0.381
			c-0.219-0.291-0.426-0.591-0.639-0.888l11.738-4.531C-1231.947,995.006-1234.347,998.392-1237.153,1001.412 M-1224.263,968.637
			c0,3.412-0.365,6.751-1.052,10.009l-21.524,8.308c-1.079-2.487-1.949-5.038-2.585-7.652c-0.152-0.621-0.272-1.251-0.398-1.879
			l25.532-9.731C-1224.284,968.007-1224.263,968.32-1224.263,968.637 M-1250.748,966.857c0.07-3.464,0.481-6.859,1.265-10.16
			l20.986-7.821c1.231,2.72,2.2,5.522,2.895,8.396L-1250.748,966.857z M-1244.367,943.902c0.08-0.139,0.15-0.283,0.232-0.421
			c0.164-0.278,0.34-0.551,0.511-0.826c0.38-0.614,0.771-1.223,1.179-1.82c0.204-0.3,0.412-0.597,0.623-0.892
			c0.421-0.588,0.856-1.164,1.303-1.732c0.201-0.257,0.398-0.518,0.605-0.771c0.641-0.782,1.3-1.551,1.988-2.292
			c0.015-0.017,0.029-0.034,0.045-0.051c1.48,1.524,2.854,3.149,4.122,4.851L-1244.367,943.902z M-1168.621,1001.906
			c-9.089,9.09-21.175,14.096-34.029,14.096c-4.506,0-8.959-0.62-13.238-1.843c-4.781-1.365-9.288-3.453-13.424-6.214
			c9.468-10.369,15.253-24.159,15.253-39.308c0-15.606-6.137-29.775-16.119-40.243c3.778-2.642,7.893-4.717,12.263-6.176
			c4.898-1.638,10.034-2.468,15.265-2.468c12.854,0,24.94,5.006,34.029,14.095c9.089,9.09,14.095,21.175,14.095,34.03
			C-1154.525,980.73-1159.532,992.816-1168.621,1001.906"/>
		<path clip-path="url(#SVGID_4_)" fill="#1B377A" d="M-499.819,969.15c0-16.8,8.705-31.567,21.85-40.039
			c-2.361-2.59-4.95-4.972-7.74-7.103c-5.043-3.855-10.731-6.902-16.879-8.956c-5.813-1.944-12.035-2.994-18.5-2.994
			c-32.213,0-58.328,26.114-58.328,58.327c0,32.216,26.115,58.33,58.328,58.33c5.563,0,10.942-0.778,16.039-2.234
			c6.673-1.906,12.855-4.966,18.319-8.956c2.831-2.066,5.466-4.384,7.878-6.916C-491.503,1000.053-499.819,985.573-499.819,969.15
			 M-507.854,1014.67c-4.276,1.223-8.729,1.842-13.235,1.842c-12.854,0-24.939-5.006-34.029-14.096
			c-9.09-9.09-14.096-21.176-14.096-34.031s5.006-24.94,14.096-34.029c9.09-9.089,21.175-14.095,34.029-14.095
			c5.231,0,10.367,0.83,15.268,2.469c4.365,1.458,8.478,3.53,12.256,6.171c-9.981,10.468-16.114,24.641-16.114,40.247
			c0,15.148,5.778,28.944,15.246,39.313C-498.567,1011.22-503.072,1013.305-507.854,1014.67"/>
		<path clip-path="url(#SVGID_4_)" fill="#1B377A" d="M-858.829,919.75c12.854,0,24.939,5.006,34.028,14.096
			c9.09,9.09,14.097,21.175,14.097,34.029c0,12.855-5.007,24.941-14.097,34.031c-9.089,9.09-21.174,14.096-34.028,14.096
			c-4.507,0-8.959-0.62-13.237-1.843c-5.438-1.552-10.52-4.037-15.106-7.385c-6.002-4.381-10.98-10.171-14.397-16.747
			c-3.574-6.879-5.387-14.333-5.387-22.152c0-7.634,1.731-14.928,5.146-21.681c3.261-6.45,8.032-12.186,13.798-16.59
			c4.221-3.226,8.902-5.71,13.918-7.386C-869.196,920.58-864.061,919.75-858.829,919.75 M-858.829,909.547
			c-6.467,0-12.688,1.052-18.5,2.995c-6.147,2.053-11.836,5.102-16.878,8.955c-13.953,10.657-22.952,27.467-22.952,46.378
			c0,19.37,9.44,36.534,23.972,47.14c5.463,3.989,11.647,7.051,18.319,8.956c5.097,1.456,10.476,2.234,16.039,2.234
			c32.213,0,58.327-26.114,58.327-58.33C-800.502,935.662-826.616,909.547-858.829,909.547"/>
		<path clip-path="url(#SVGID_4_)" fill="#1B377A" d="M-1174.248,1285.166c-0.012,0.004-0.024,0.009-0.037,0.013
			c-3.016-1.238-5.897-2.785-8.611-4.617c-0.044-0.029-0.088-0.059-0.132-0.088c-0.205-0.14-0.409-0.281-0.613-0.424
			c-0.205-0.145-0.408-0.289-0.611-0.436c-0.073-0.053-0.147-0.104-0.22-0.156c-0.039-0.029-0.076-0.061-0.115-0.088
			c-11.887-8.75-19.6-22.84-19.6-38.73c0-14.271,6.222-27.087,16.098-35.89c0.146-0.13,0.293-0.262,0.441-0.391
			c0.071-0.061,0.144-0.123,0.215-0.185c0.234-0.201,0.47-0.401,0.707-0.597c0.019-0.017,0.039-0.032,0.058-0.048
			c1.115-0.922,2.271-1.796,3.469-2.618c3.396-2.328,7.05-4.198,10.895-5.579c0.018,0.007,0.035,0.014,0.053,0.021
			c4.955-1.765,10.284-2.74,15.837-2.772c-4.731-3.422-9.996-6.152-15.647-8.04c-5.812-1.943-12.034-2.994-18.5-2.994
			c-32.213,0-58.327,26.114-58.327,58.327c0,32.216,26.114,58.33,58.327,58.33c5.563,0,10.943-0.778,16.039-2.234
			c5.733-1.636,11.105-4.128,15.969-7.327C-1164.082,1288.367-1169.365,1287.155-1174.248,1285.166 M-1190.561,1288.001
			c-12.854,0-24.939-5.006-34.029-14.096c-9.09-9.09-14.096-21.176-14.096-34.031c0-12.854,5.006-24.939,14.096-34.029
			c9.09-9.09,21.175-14.096,34.029-14.096c0.87,0,1.738,0.025,2.602,0.071c-15.894,10.419-26.393,28.392-26.393,48.817
			c0,19.504,9.575,36.771,24.279,47.36C-1190.236,1287.998-1190.398,1288.001-1190.561,1288.001"/>
		<path clip-path="url(#SVGID_4_)" fill="#1B377A" d="M-546.591,1263.873c-2.436-1.422-5.559-0.601-6.979,1.832l-28.082,48.081
			c-1.42,2.434-0.6,5.558,1.832,6.979c0.811,0.473,1.695,0.697,2.569,0.697c1.754,0,3.462-0.906,4.41-2.529l28.081-48.081
			C-543.338,1268.418-544.158,1265.294-546.591,1263.873"/>
		<path clip-path="url(#SVGID_4_)" fill="#1B377A" d="M-519.553,1263.873c-2.435-1.422-5.558-0.601-6.979,1.832l-28.082,48.081
			c-1.42,2.434-0.6,5.558,1.832,6.979c0.811,0.473,1.695,0.697,2.569,0.697c1.754,0,3.462-0.906,4.41-2.529l28.082-48.081
			C-516.3,1268.418-517.12,1265.294-519.553,1263.873"/>
		<path clip-path="url(#SVGID_4_)" fill="#1B377A" d="M-492.516,1263.873c-2.437-1.422-5.558-0.601-6.979,1.832l-28.08,48.081
			c-1.421,2.434-0.601,5.558,1.832,6.979c0.81,0.473,1.694,0.697,2.568,0.697c1.754,0,3.462-0.906,4.41-2.529l28.081-48.081
			C-489.263,1268.418-490.083,1265.294-492.516,1263.873"/>
		<path clip-path="url(#SVGID_4_)" fill="#1B377A" d="M-477.738,1217.305c-2.292,0-4.539,0.19-6.728,0.56
			c-0.729,0.122-1.457,0.182-2.179,0.182c-4.733,0-9.184-2.561-11.655-6.731c-9.993-16.876-28.382-28.19-49.416-28.19
			c-0.254,0-0.51,0.002-0.766,0.005c-31.489,0.411-56.625,25.895-56.625,57.387c0,1.034,0.027,2.063,0.081,3.083
			c0.242,4.573-1.779,8.954-5.443,11.701c-5.725,4.292-9.439,11.119-9.479,18.815c-0.07,13.086,10.896,23.791,23.98,23.791h0.222
			h4.672h6.814c2.817,0,5.102-2.283,5.102-5.101s-2.284-5.103-5.102-5.103h-9.412h-1.383h-0.913c-3.695,0-7.192-1.469-9.847-4.138
			c-2.554-2.567-3.95-5.903-3.932-9.396c0.022-4.249,1.99-8.152,5.398-10.707c6.379-4.783,9.935-12.41,9.512-20.404
			c-0.045-0.84-0.067-1.695-0.067-2.543c0-12.533,4.817-24.317,13.564-33.183c8.746-8.866,20.463-13.839,32.99-14.002
			c0.211-0.003,0.422-0.004,0.633-0.004c8.35,0,16.55,2.206,23.713,6.379c6.964,4.058,12.817,9.869,16.926,16.807
			c4.287,7.237,12.116,11.735,20.433,11.735c1.292,0,2.595-0.109,3.87-0.323c1.651-0.277,3.346-0.418,5.036-0.418
			c8.042,0,15.603,3.133,21.288,8.821c5.686,5.688,8.814,13.25,8.811,21.293c-0.009,16.588-13.684,30.082-30.484,30.082h-1.397
			h-2.238h-6.306c-2.818,0-5.102,2.285-5.102,5.103s2.283,5.101,5.102,5.101h5.733h0.293h3.915
			c22.313,0,40.676-17.967,40.688-40.279C-437.425,1235.36-455.474,1217.305-477.738,1217.305"/>
		<path clip-path="url(#SVGID_4_)" fill="#1B377A" d="M-1198.786,1569.586h-17.506l12.431-21.056
			c1.432-2.425,0.627-5.554-1.799-6.985c-2.426-1.435-5.555-0.627-6.986,1.799l-16.975,28.75c-0.932,1.577-0.945,3.532-0.038,5.123
			c0.908,1.591,2.6,2.572,4.431,2.572h17.491l-15.079,25.458c-1.436,2.424-0.635,5.553,1.79,6.988
			c0.815,0.483,1.711,0.713,2.594,0.713c1.744,0,3.442-0.894,4.395-2.502l19.641-33.159c0.933-1.577,0.95-3.533,0.043-5.126
			C-1195.262,1570.568-1196.953,1569.586-1198.786,1569.586"/>
		<path clip-path="url(#SVGID_4_)" fill="#1B377A" d="M-1151.696,1499.203c-2.292,0-4.539,0.19-6.726,0.559
			c-0.73,0.123-1.458,0.183-2.18,0.183c-4.734,0-9.184-2.561-11.654-6.731c-9.994-16.876-28.383-28.19-49.417-28.19
			c-0.254,0-0.51,0.002-0.766,0.006c-31.489,0.41-56.625,25.895-56.625,57.387c0,1.034,0.027,2.061,0.081,3.083
			c0.242,4.572-1.779,8.954-5.443,11.701c-5.725,4.292-9.439,11.119-9.48,18.815c-0.07,13.085,10.896,23.791,23.981,23.791h0.222
			h4.577h0.094h6.815h10.947c2.817,0,5.101-2.283,5.101-5.102c0-2.817-2.284-5.102-5.101-5.102h-10.947h-6.909h-2.504h-1.383h-0.912
			c-3.696,0-7.193-1.469-9.848-4.138c-2.553-2.567-3.949-5.905-3.93-9.396c0.022-4.248,1.989-8.151,5.398-10.706
			c6.378-4.783,9.934-12.41,9.511-20.404c-0.045-0.84-0.067-1.696-0.067-2.543c0-12.533,4.817-24.317,13.564-33.184
			c8.747-8.865,20.463-13.838,32.991-14.002c0.211-0.002,0.422-0.004,0.633-0.004c8.35,0,16.549,2.206,23.712,6.379
			c6.965,4.059,12.818,9.869,16.926,16.808c4.287,7.237,12.116,11.733,20.433,11.733c1.292,0,2.594-0.107,3.87-0.321
			c1.651-0.277,3.345-0.418,5.036-0.418c8.042,0,15.603,3.133,21.288,8.819c5.686,5.689,8.815,13.251,8.811,21.294
			c-0.009,16.589-13.684,30.083-30.485,30.083h-1.397h-2.238h-3.426h-2.88h-14.975c-2.817,0-5.101,2.284-5.101,5.102
			c0,2.818,2.284,5.102,5.101,5.102h14.975h2.88h2.853h0.294h3.914c22.313,0,40.676-17.968,40.687-40.279
			C-1111.383,1517.259-1129.431,1499.203-1151.696,1499.203"/>
		<path clip-path="url(#SVGID_4_)" fill="#1B377A" d="M-807.876,1499.352c-2.292,0-4.539,0.19-6.727,0.559
			c-0.729,0.123-1.457,0.183-2.18,0.183c-4.733,0-9.184-2.561-11.654-6.731c-9.994-16.875-28.383-28.19-49.416-28.19
			c-0.255,0-0.511,0.002-0.767,0.006c-31.489,0.41-56.625,25.895-56.625,57.387c0,1.034,0.027,2.062,0.081,3.083
			c0.242,4.573-1.779,8.954-5.443,11.701c-5.725,4.292-9.439,11.119-9.48,18.815c-0.07,13.085,10.896,23.792,23.981,23.792h0.222
			h4.671h6.815c2.817,0,5.101-2.284,5.101-5.102s-2.284-5.103-5.101-5.103h-9.413h-1.383h-0.912c-3.696,0-7.193-1.469-9.848-4.138
			c-2.553-2.567-3.949-5.904-3.931-9.396c0.023-4.249,1.99-8.151,5.399-10.707c6.378-4.783,9.934-12.41,9.511-20.403
			c-0.045-0.841-0.067-1.696-0.067-2.544c0-12.532,4.817-24.317,13.564-33.184c8.747-8.865,20.463-13.838,32.991-14.002
			c0.21-0.002,0.421-0.004,0.633-0.004c8.349,0,16.549,2.206,23.712,6.379c6.964,4.059,12.817,9.869,16.926,16.808
			c4.286,7.237,12.116,11.735,20.433,11.735c1.292,0,2.594-0.109,3.87-0.323c1.65-0.277,3.345-0.418,5.036-0.418
			c8.042,0,15.603,3.133,21.288,8.82c5.686,5.689,8.814,13.25,8.811,21.293c-0.009,16.589-13.684,30.083-30.484,30.083h-1.397
			h-2.238h-6.306c-2.817,0-5.102,2.285-5.102,5.103s2.284,5.102,5.102,5.102h5.733h0.293h3.915c22.313,0,40.676-17.968,40.688-40.28
			C-767.563,1517.407-785.611,1499.352-807.876,1499.352"/>
		<path clip-path="url(#SVGID_4_)" fill="#1B377A" d="M-884.575,1568.568c-3.371,0-6.114,2.743-6.114,6.114s2.743,6.114,6.114,6.114
			s6.114-2.743,6.114-6.114S-881.204,1568.568-884.575,1568.568"/>
		<path clip-path="url(#SVGID_4_)" fill="#1B377A" d="M-847.165,1568.568c-3.371,0-6.114,2.743-6.114,6.114s2.743,6.114,6.114,6.114
			s6.114-2.743,6.114-6.114S-843.794,1568.568-847.165,1568.568"/>
		<path clip-path="url(#SVGID_4_)" fill="#1B377A" d="M-904.47,1597.137c-3.371,0-6.114,2.743-6.114,6.114s2.743,6.114,6.114,6.114
			s6.114-2.743,6.114-6.114S-901.099,1597.137-904.47,1597.137"/>
		<path clip-path="url(#SVGID_4_)" fill="#1B377A" d="M-867.06,1597.137c-3.371,0-6.114,2.743-6.114,6.114s2.743,6.114,6.114,6.114
			c3.37,0,6.113-2.743,6.113-6.114S-863.689,1597.137-867.06,1597.137"/>
		<path clip-path="url(#SVGID_4_)" fill="#1B377A" d="M-820.56,1543.727c0-3.371-2.743-6.114-6.114-6.114s-6.114,2.743-6.114,6.114
			s2.743,6.114,6.114,6.114S-820.56,1547.098-820.56,1543.727"/>
		<path clip-path="url(#SVGID_4_)" fill="#1B377A" d="M-1239.286,1768.005c2.817,0,5.102-2.285,5.102-5.103v-6.185
			c0-2.817-2.285-5.102-5.102-5.102s-5.102,2.284-5.102,5.102v6.185C-1244.388,1765.72-1242.103,1768.005-1239.286,1768.005"/>
		<path clip-path="url(#SVGID_4_)" fill="#1B377A" d="M-1281.311,1782.81c0.996,0.996,2.302,1.494,3.607,1.494
			c1.306,0,2.612-0.498,3.608-1.494c1.992-1.992,1.992-5.223,0-7.215l-4.373-4.373c-1.992-1.992-5.223-1.992-7.215,0
			s-1.992,5.223,0,7.215L-1281.311,1782.81z"/>
		<path clip-path="url(#SVGID_4_)" fill="#1B377A" d="M-1293.342,1812.792h-6.185c-2.817,0-5.101,2.283-5.101,5.102
			c0,2.816,2.284,5.102,5.101,5.102h6.185c2.817,0,5.102-2.285,5.102-5.102C-1288.24,1815.075-1290.525,1812.792-1293.342,1812.792"
			/>
		<path clip-path="url(#SVGID_4_)" fill="#1B377A" d="M-1280.649,1852.702l-4.373,4.373c-1.992,1.992-1.992,5.223,0,7.215
			c0.996,0.996,2.302,1.494,3.607,1.494c1.306,0,2.612-0.498,3.608-1.494l4.373-4.373c1.992-1.992,1.992-5.223,0-7.215
			C-1275.426,1850.71-1278.657,1850.71-1280.649,1852.702"/>
		<path clip-path="url(#SVGID_4_)" fill="#1B377A" d="M-1200.596,1783.644c1.306,0,2.611-0.498,3.607-1.494l4.373-4.373
			c1.993-1.992,1.993-5.223,0-7.215c-1.992-1.992-5.222-1.992-7.214,0l-4.373,4.373c-1.993,1.992-1.993,5.223,0,7.215
			C-1203.207,1783.146-1201.902,1783.644-1200.596,1783.644"/>
		<path clip-path="url(#SVGID_4_)" fill="#1B377A" d="M-1186.309,1857.001c-2.436-1.422-5.558-0.603-6.979,1.832l-17.647,30.215
			c-1.421,2.433-0.601,5.558,1.832,6.978c0.81,0.474,1.694,0.698,2.568,0.698c1.754,0,3.462-0.907,4.411-2.529l17.647-30.215
			C-1183.056,1861.546-1183.875,1858.421-1186.309,1857.001"/>
		<path clip-path="url(#SVGID_4_)" fill="#1B377A" d="M-1167.404,1857.001c-2.435-1.422-5.559-0.603-6.979,1.832l-17.647,30.215
			c-1.421,2.433-0.601,5.558,1.832,6.978c0.81,0.474,1.694,0.698,2.568,0.698c1.754,0,3.462-0.907,4.411-2.529l17.647-30.215
			C-1164.151,1861.546-1164.971,1858.421-1167.404,1857.001"/>
		<path clip-path="url(#SVGID_4_)" fill="#1B377A" d="M-1148.5,1857.001c-2.436-1.422-5.559-0.603-6.979,1.832l-17.647,30.215
			c-1.421,2.433-0.601,5.558,1.832,6.978c0.81,0.474,1.694,0.698,2.568,0.698c1.754,0,3.462-0.907,4.411-2.529l17.647-30.215
			C-1145.247,1861.546-1146.067,1858.421-1148.5,1857.001"/>
		<path clip-path="url(#SVGID_4_)" fill="#1B377A" d="M-1132.587,1817.733c-1.814,0-3.594,0.151-5.326,0.443
			c-0.578,0.097-1.155,0.144-1.726,0.144c-3.748,0-7.272-2.027-9.228-5.33c-7.914-13.362-22.475-22.321-39.131-22.321
			c-0.202,0-0.404,0.001-0.607,0.004c-5.947,0.077-11.602,1.295-16.775,3.426c-7.467-10.484-19.711-17.33-33.564-17.33
			c-22.751,0-41.194,18.443-41.194,41.193c0,20.782,15.392,37.959,35.396,40.778c-0.285,1.283-0.447,2.612-0.454,3.979
			c-0.055,10.363,8.628,18.841,18.99,18.841h2.684h6.219h2.007c2.818,0,5.102-2.284,5.102-5.102c0-2.819-2.284-5.102-5.102-5.102
			h-1.662h-6.564h-2.684c-2.358,0-4.592-0.941-6.293-2.65c-1.62-1.63-2.506-3.737-2.494-5.932c0.014-2.694,1.262-5.169,3.425-6.791
			c5.618-4.213,8.75-10.931,8.378-17.967c-0.033-0.63-0.05-1.27-0.05-1.902c0-9.362,3.597-18.164,10.129-24.784
			c6.531-6.62,15.281-10.333,24.639-10.455c0.158-0.003,0.317-0.003,0.474-0.003c6.236,0,12.359,1.646,17.707,4.762
			c5.203,3.031,9.576,7.373,12.644,12.556c3.776,6.374,10.676,10.334,18.008,10.334c1.14,0,2.29-0.097,3.416-0.285
			c1.191-0.2,2.414-0.302,3.636-0.302c5.801,0,11.254,2.26,15.355,6.363c4.101,4.103,6.358,9.557,6.355,15.358
			c-0.006,11.964-9.882,21.698-22.015,21.698h-2.621h-6.13c-2.818,0-5.102,2.282-5.102,5.102c0,2.817,2.284,5.102,5.102,5.102h8.226
			h0.525c17.668,0,32.208-14.229,32.218-31.896C-1100.665,1832.031-1114.957,1817.733-1132.587,1817.733 M-1233.443,1836.114
			c0,0.818,0.021,1.633,0.064,2.44c0.192,3.621-1.409,7.091-4.31,9.267c-0.472,0.354-0.922,0.732-1.358,1.129
			c-8.239-0.025-15.982-3.244-21.812-9.074c-5.853-5.854-9.077-13.636-9.077-21.914c0-8.277,3.224-16.061,9.077-21.914
			c5.854-5.854,13.636-9.077,21.915-9.077c8.277,0,16.06,3.224,21.913,9.077c0.958,0.958,1.829,1.977,2.643,3.032
			C-1225.941,1807.31-1233.443,1820.812-1233.443,1836.114"/>
		<path clip-path="url(#SVGID_4_)" fill="#1B377A" d="M-895.467,1767.897c2.817,0,5.102-2.283,5.102-5.103v-6.183
			c0-2.819-2.285-5.102-5.102-5.102s-5.102,2.282-5.102,5.102v6.183C-900.569,1765.614-898.284,1767.897-895.467,1767.897"/>
		<path clip-path="url(#SVGID_4_)" fill="#1B377A" d="M-937.49,1782.704c0.996,0.996,2.302,1.494,3.607,1.494
			c1.306,0,2.612-0.498,3.608-1.494c1.992-1.992,1.992-5.223,0-7.215l-4.373-4.373c-1.992-1.992-5.223-1.992-7.215,0
			s-1.992,5.223,0,7.215L-937.49,1782.704z"/>
		<path clip-path="url(#SVGID_4_)" fill="#1B377A" d="M-949.521,1812.685h-6.185c-2.817,0-5.101,2.285-5.101,5.102
			c0,2.818,2.284,5.102,5.101,5.102h6.185c2.817,0,5.102-2.283,5.102-5.102C-944.419,1814.97-946.705,1812.685-949.521,1812.685"/>
		<path clip-path="url(#SVGID_4_)" fill="#1B377A" d="M-936.829,1852.597l-4.373,4.373c-1.992,1.992-1.992,5.223,0.001,7.215
			c0.996,0.996,2.301,1.494,3.606,1.494c1.306,0,2.612-0.498,3.608-1.496l4.373-4.373c1.992-1.992,1.992-5.223-0.001-7.215
			C-931.607,1850.603-934.837,1850.603-936.829,1852.597"/>
		<path clip-path="url(#SVGID_4_)" fill="#1B377A" d="M-856.776,1783.536c1.306,0,2.611-0.498,3.605-1.494l4.375-4.373
			c1.993-1.992,1.993-5.221,0-7.213c-1.991-1.994-5.223-1.994-7.213-0.002l-4.374,4.373c-1.993,1.992-1.993,5.223-0.001,7.215
			C-859.388,1783.038-858.082,1783.536-856.776,1783.536"/>
		<path clip-path="url(#SVGID_4_)" fill="#1B377A" d="M-824.146,1871.483h-11.49l8.569-14.514c1.433-2.426,0.627-5.555-1.799-6.986
			c-2.426-1.435-5.554-0.627-6.986,1.799l-13.113,22.207c-0.932,1.578-0.946,3.533-0.038,5.123s2.599,2.572,4.431,2.572h11.477
			l-10.611,17.916c-1.436,2.424-0.634,5.553,1.79,6.987c0.815,0.483,1.71,0.714,2.595,0.714c1.743,0,3.441-0.895,4.395-2.503
			l15.172-25.614c0.934-1.578,0.95-3.533,0.043-5.127C-820.622,1872.465-822.313,1871.483-824.146,1871.483"/>
		<path clip-path="url(#SVGID_4_)" fill="#1B377A" d="M-788.767,1817.628c-1.814,0-3.594,0.15-5.326,0.442
			c-0.577,0.097-1.154,0.144-1.727,0.144c-3.748,0-7.271-2.027-9.228-5.33c-7.914-13.362-22.476-22.321-39.131-22.321
			c-0.201,0-0.404,0.001-0.606,0.004c-5.947,0.077-11.603,1.295-16.775,3.427c-7.467-10.484-19.712-17.332-33.565-17.332
			c-22.75,0-41.194,18.443-41.194,41.195c0,20.781,15.392,37.959,35.396,40.777c-0.285,1.283-0.446,2.613-0.453,3.979
			c-0.055,10.362,8.628,18.839,18.99,18.839h2.684h3.159h3.061h2.007h8.622c2.818,0,5.102-2.283,5.102-5.101
			c0-2.818-2.283-5.102-5.102-5.102h-8.622h-1.662h-3.405h-3.159h-2.684c-2.358,0-4.592-0.941-6.293-2.651
			c-1.62-1.629-2.506-3.735-2.494-5.931c0.014-2.694,1.262-5.169,3.425-6.79c5.618-4.213,8.75-10.931,8.378-17.969
			c-0.034-0.629-0.05-1.268-0.05-1.901c0-9.362,3.597-18.164,10.128-24.784s15.282-10.333,24.64-10.455
			c0.158-0.002,0.316-0.003,0.474-0.003c6.236,0,12.359,1.646,17.707,4.763c5.203,3.031,9.575,7.372,12.645,12.555
			c3.775,6.375,10.675,10.334,18.007,10.334c1.141,0,2.29-0.097,3.417-0.285c1.19-0.2,2.414-0.301,3.636-0.301
			c5.801,0,11.254,2.259,15.354,6.361c4.103,4.104,6.359,9.559,6.356,15.359c-0.007,11.965-9.883,21.698-22.016,21.698h-2.62h-0.421
			h-5.71h-7.979c-2.817,0-5.102,2.283-5.102,5.102c0,2.817,2.284,5.101,5.102,5.101h7.979h5.71h2.517h0.524
			c17.668,0,32.209-14.227,32.218-31.895C-756.845,1831.925-771.137,1817.628-788.767,1817.628 M-889.623,1836.008
			c0,0.819,0.021,1.633,0.064,2.439c0.192,3.622-1.409,7.091-4.31,9.267c-0.472,0.354-0.922,0.733-1.358,1.131
			c-8.24-0.027-15.982-3.246-21.812-9.075c-5.853-5.853-9.077-13.636-9.077-21.913c0-8.279,3.224-16.061,9.077-21.914
			c5.854-5.854,13.636-9.079,21.914-9.079s16.061,3.226,21.914,9.079c0.958,0.957,1.829,1.977,2.644,3.031
			C-882.121,1807.204-889.623,1820.706-889.623,1836.008"/>
		<path clip-path="url(#SVGID_4_)" fill="#1B377A" d="M-520.532,1871.118c-3.02,0-5.477,2.457-5.477,5.477s2.457,5.477,5.477,5.477
			s5.477-2.457,5.477-5.477S-517.513,1871.118-520.532,1871.118"/>
		<path clip-path="url(#SVGID_4_)" fill="#1B377A" d="M-535.982,1892.696c-3.021,0-5.478,2.457-5.478,5.479
			c0,3.02,2.457,5.477,5.478,5.477c3.02,0,5.477-2.457,5.477-5.477C-530.506,1895.153-532.963,1892.696-535.982,1892.696"/>
		<path clip-path="url(#SVGID_4_)" fill="#1B377A" d="M-490.064,1871.118c-3.021,0-5.478,2.457-5.478,5.477s2.457,5.477,5.478,5.477
			c3.02,0,5.477-2.457,5.477-5.477S-487.045,1871.118-490.064,1871.118"/>
		<path clip-path="url(#SVGID_4_)" fill="#1B377A" d="M-505.883,1892.696c-3.021,0-5.478,2.457-5.478,5.479
			c0,3.02,2.457,5.477,5.478,5.477c3.02,0,5.477-2.457,5.477-5.477C-500.406,1895.153-502.863,1892.696-505.883,1892.696"/>
		<path clip-path="url(#SVGID_4_)" fill="#1B377A" d="M-505.882,1849.249c-3.02,0-5.477,2.457-5.477,5.477s2.457,5.477,5.477,5.477
			c3.021,0,5.478-2.457,5.478-5.477S-502.86,1849.249-505.882,1849.249"/>
		<path clip-path="url(#SVGID_4_)" fill="#1B377A" d="M-475.782,1892.696c-3.02,0-5.477,2.457-5.477,5.479
			c0,3.02,2.457,5.477,5.477,5.477s5.477-2.457,5.477-5.477C-470.306,1895.153-472.763,1892.696-475.782,1892.696"/>
		<path clip-path="url(#SVGID_4_)" fill="#1B377A" d="M-458.542,1817.733c-1.813,0-3.593,0.151-5.324,0.443
			c-0.578,0.097-1.154,0.144-1.727,0.144c-3.748,0-7.272-2.027-9.229-5.33c-7.914-13.362-22.475-22.321-39.13-22.321
			c-0.202,0-0.405,0.001-0.607,0.004c-5.978,0.078-11.661,1.308-16.856,3.46c-7.457-10.563-19.746-17.471-33.659-17.471
			c-22.751,0-41.194,18.442-41.194,41.194c0,20.848,15.491,38.07,35.589,40.807c-0.296,1.306-0.463,2.662-0.47,4.056
			c-0.055,10.363,8.628,18.841,18.99,18.841h2.685h6.218h2.008c2.817,0,5.102-2.284,5.102-5.102c0-2.819-2.284-5.102-5.102-5.102
			h-1.662h-6.563h-2.685c-2.357,0-4.593-0.941-6.293-2.65c-1.62-1.63-2.506-3.737-2.494-5.932c0.014-2.694,1.262-5.169,3.425-6.791
			c5.618-4.213,8.75-10.931,8.378-17.967c-0.033-0.63-0.05-1.27-0.05-1.902c0-9.362,3.597-18.164,10.128-24.784
			c6.532-6.62,15.282-10.333,24.64-10.455c0.158-0.003,0.316-0.003,0.475-0.003c6.235,0,12.358,1.646,17.707,4.762
			c5.201,3.031,9.575,7.373,12.645,12.556c3.774,6.374,10.675,10.334,18.007,10.334c1.141,0,2.29-0.097,3.417-0.285
			c1.19-0.2,2.414-0.302,3.634-0.302c5.802,0,11.254,2.26,15.356,6.363c4.101,4.103,6.357,9.557,6.354,15.358
			c-0.006,11.964-9.882,21.698-22.015,21.698h-2.62h-6.131c-2.818,0-5.102,2.282-5.102,5.102c0,2.817,2.283,5.102,5.102,5.102h8.225
			h0.002h0.524c17.668,0,32.209-14.229,32.218-31.896C-426.619,1832.031-440.91,1817.733-458.542,1817.733 M-559.396,1836.114
			c0,0.818,0.021,1.633,0.063,2.44c0.192,3.621-1.408,7.091-4.31,9.267c-0.428,0.32-0.837,0.664-1.235,1.021
			c-0.065,0-0.131,0.004-0.196,0.004c-8.278,0-16.061-3.223-21.914-9.077c-5.854-5.852-9.077-13.635-9.077-21.912
			c0-8.278,3.224-16.061,9.077-21.914s13.636-9.078,21.914-9.078s16.061,3.225,21.914,9.078c1.003,1.002,1.915,2.069,2.761,3.18
			C-551.92,1807.356-559.396,1820.838-559.396,1836.114"/>
		<path clip-path="url(#SVGID_4_)" fill="#1B377A" d="M-565.416,1767.897c2.817,0,5.102-2.283,5.102-5.103v-6.183
			c0-2.819-2.284-5.102-5.102-5.102s-5.103,2.282-5.103,5.102v6.183C-570.519,1765.614-568.233,1767.897-565.416,1767.897"/>
		<path clip-path="url(#SVGID_4_)" fill="#1B377A" d="M-607.44,1782.704c0.996,0.996,2.302,1.494,3.607,1.494
			s2.611-0.498,3.607-1.494c1.992-1.992,1.992-5.223,0-7.215l-4.373-4.373c-1.992-1.992-5.223-1.992-7.215,0s-1.992,5.223,0,7.215
			L-607.44,1782.704z"/>
		<path clip-path="url(#SVGID_4_)" fill="#1B377A" d="M-619.472,1812.685h-6.186c-2.816,0-5.101,2.285-5.101,5.102
			c0,2.818,2.284,5.102,5.101,5.102h6.186c2.817,0,5.102-2.283,5.102-5.102C-614.37,1814.97-616.654,1812.685-619.472,1812.685"/>
		<path clip-path="url(#SVGID_4_)" fill="#1B377A" d="M-606.779,1852.597l-4.373,4.373c-1.992,1.992-1.992,5.223,0.001,7.215
			c0.996,0.996,2.301,1.494,3.606,1.494s2.611-0.498,3.607-1.496l4.373-4.373c1.992-1.992,1.992-5.223-0.001-7.215
			C-601.558,1850.603-604.787,1850.603-606.779,1852.597"/>
		<path clip-path="url(#SVGID_4_)" fill="#1B377A" d="M-526.727,1783.536c1.306,0,2.611-0.498,3.606-1.494l4.373-4.373
			c1.994-1.992,1.994-5.221,0.002-7.213c-1.992-1.994-5.224-1.994-7.214-0.002l-4.374,4.373c-1.994,1.992-1.994,5.223-0.001,7.215
			C-529.338,1783.038-528.032,1783.536-526.727,1783.536"/>
		<path clip-path="url(#SVGID_4_)" fill="#1B377A" d="M-757.167,2092.141l-0.069-1.052l-1.027,0.242
			c-12.278,2.904-25.146-0.457-34.417-8.99c-9.521-8.762-13.885-21.615-11.674-34.384l0.18-1.04l-1.055-0.005
			c-2.923-0.017-5.848,0.233-8.69,0.733c-5.265,0.928-10.298,2.702-14.959,5.276c-4.556,2.513-8.67,5.749-12.229,9.617
			c-7.649,8.312-12.07,18.79-12.711,29.918c-0.409,0.049-0.818,0.081-1.224,0.081c-3.749,0-7.272-2.027-9.229-5.33
			c-7.914-13.363-22.475-22.322-39.13-22.322c-0.202,0-0.405,0.001-0.607,0.004c-24.935,0.326-44.839,20.506-44.839,45.442
			c0,0.819,0.022,1.633,0.065,2.44c0.191,3.621-1.409,7.091-4.311,9.266c-4.532,3.398-7.474,8.806-7.506,14.9
			c-0.055,10.361,8.628,18.838,18.99,18.838h93.313c11.309,0,21.328-5.833,27.084-14.661c5.09,1.741,10.404,2.612,15.716,2.612
			c13.075-0.002,26.115-5.252,35.646-15.608c3.064-3.331,5.64-7.05,7.651-11.053c2.558-5.089,4.183-10.548,4.828-16.226
			C-757.045,2097.976-756.976,2095.049-757.167,2092.141 M-848.297,2145.574h-93.313c-2.358,0-4.593-0.941-6.293-2.651
			c-1.62-1.629-2.507-3.734-2.495-5.931c0.015-2.694,1.263-5.169,3.425-6.79c5.619-4.213,8.75-10.93,8.378-17.969
			c-0.033-0.628-0.05-1.268-0.05-1.901c0-9.363,3.597-18.164,10.129-24.784c6.531-6.62,15.282-10.333,24.64-10.455
			c0.158-0.002,0.316-0.004,0.474-0.004c6.236,0,12.359,1.647,17.707,4.764c5.202,3.031,9.575,7.371,12.644,12.555
			c3.775,6.374,10.675,10.334,18.008,10.334c1.14,0,2.289-0.096,3.416-0.285c1.191-0.2,2.414-0.302,3.636-0.302
			c5.801,0,11.254,2.26,15.354,6.361c4.101,4.104,6.358,9.56,6.355,15.36C-826.288,2135.841-836.164,2145.574-848.297,2145.574
			 M-771.224,2112.532L-771.224,2112.532c-1.59,3.164-3.628,6.106-6.059,8.748c-6.932,7.531-16.381,11.913-26.608,12.338
			c-4.546,0.187-8.997-0.436-13.207-1.772c0.663-2.544,1.018-5.212,1.021-7.964c0.007-16.167-12.009-29.521-27.595-31.631
			c0.669-8.507,4.126-16.496,9.994-22.873c2.821-3.064,6.078-5.627,9.68-7.615c2.901-1.602,5.998-2.815,9.221-3.617
			c1.048,12.07,6.507,23.193,15.445,31.42c8.65,7.961,19.812,12.474,31.533,12.772
			C-768.452,2105.884-769.604,2109.308-771.224,2112.532"/>
		<path clip-path="url(#SVGID_4_)" fill="#1B377A" d="M-426.989,2092.141l-0.069-1.052l-1.027,0.242
			c-12.278,2.904-25.146-0.457-34.417-8.99c-9.521-8.762-13.885-21.615-11.674-34.384l0.18-1.04l-1.055-0.005
			c-2.923-0.017-5.848,0.233-8.69,0.733c-5.265,0.928-10.298,2.702-14.959,5.277c-4.556,2.512-8.67,5.748-12.229,9.616
			c-7.646,8.308-12.067,18.783-12.71,29.908c-0.437,0.055-0.872,0.091-1.305,0.091c-3.748,0-7.271-2.027-9.228-5.33
			c-7.914-13.363-22.477-22.322-39.131-22.322c-0.202,0-0.404,0.001-0.606,0.004c-24.935,0.326-44.839,20.506-44.839,45.442
			c0,0.819,0.021,1.633,0.064,2.44c0.191,3.621-1.409,7.091-4.311,9.266c-4.532,3.398-7.475,8.806-7.507,14.9
			c-0.055,10.361,8.629,18.839,18.99,18.839h2.685h6.219h2.007c2.818,0,5.102-2.284,5.102-5.102s-2.283-5.102-5.102-5.102h-1.662
			h-6.563h-2.685c-2.357,0-4.592-0.941-6.292-2.651c-1.621-1.629-2.507-3.734-2.495-5.931c0.015-2.694,1.263-5.169,3.425-6.79
			c5.618-4.213,8.751-10.93,8.378-17.968c-0.033-0.629-0.05-1.269-0.05-1.902c0-9.363,3.597-18.164,10.129-24.784
			c6.531-6.62,15.282-10.333,24.64-10.455c0.158-0.002,0.316-0.004,0.474-0.004c6.236,0,12.359,1.647,17.707,4.764
			c5.203,3.031,9.574,7.371,12.645,12.555c3.775,6.374,10.675,10.334,18.007,10.334c1.141,0,2.29-0.096,3.417-0.285
			c1.19-0.2,2.414-0.301,3.636-0.301c5.801,0,11.254,2.259,15.354,6.36c4.102,4.104,6.358,9.56,6.355,15.36
			c-0.008,11.965-9.883,21.698-22.016,21.698h-2.62h-6.131c-2.817,0-5.102,2.284-5.102,5.102s2.284,5.102,5.102,5.102h8.227h0.524
			c11.318,0,21.346-5.846,27.099-14.686c5.11,1.755,10.447,2.636,15.78,2.636c13.075-0.002,26.115-5.252,35.646-15.608
			c3.064-3.331,5.64-7.05,7.65-11.053c2.559-5.089,4.184-10.548,4.829-16.226C-426.867,2097.976-426.798,2095.049-426.989,2092.141
			 M-441.046,2112.532L-441.046,2112.532c-1.59,3.164-3.628,6.106-6.059,8.748c-6.932,7.531-16.381,11.913-26.608,12.338
			c-4.572,0.188-9.049-0.441-13.281-1.795c0.66-2.538,1.013-5.198,1.013-7.941c0.01-16.14-11.966-29.477-27.514-31.621
			c0.667-8.51,4.125-16.504,9.995-22.883c2.821-3.064,6.078-5.627,9.68-7.615c2.901-1.601,5.998-2.815,9.221-3.617
			c1.048,12.071,6.507,23.193,15.445,31.42c8.65,7.961,19.812,12.475,31.533,12.772
			C-438.274,2105.884-439.426,2109.308-441.046,2112.532"/>
		<path clip-path="url(#SVGID_4_)" fill="#1B377A" d="M-571.614,2131.219c-2.436-1.422-5.559-0.603-6.979,1.832l-17.647,30.215
			c-1.421,2.433-0.601,5.557,1.832,6.978c0.81,0.474,1.694,0.698,2.568,0.698c1.754,0,3.462-0.906,4.41-2.53l17.647-30.214
			C-568.361,2135.764-569.182,2132.64-571.614,2131.219"/>
		<path clip-path="url(#SVGID_4_)" fill="#1B377A" d="M-552.71,2131.219c-2.436-1.422-5.558-0.603-6.979,1.832l-17.647,30.215
			c-1.421,2.433-0.601,5.557,1.832,6.978c0.81,0.474,1.694,0.698,2.568,0.698c1.754,0,3.462-0.906,4.41-2.53l17.647-30.214
			C-549.457,2135.764-550.277,2132.64-552.71,2131.219"/>
		<path clip-path="url(#SVGID_4_)" fill="#1B377A" d="M-533.806,2131.219c-2.436-1.422-5.559-0.603-6.979,1.832l-17.647,30.215
			c-1.421,2.433-0.601,5.557,1.832,6.978c0.81,0.474,1.694,0.698,2.567,0.698c1.755,0,3.463-0.906,4.411-2.53l17.647-30.214
			C-530.553,2135.764-531.373,2132.64-533.806,2131.219"/>
		<path clip-path="url(#SVGID_4_)" fill="#1B377A" d="M-1100.862,2387.661l-0.07-1.054l-1.027,0.243
			c-12.279,2.903-25.145-0.458-34.417-8.99c-9.521-8.763-13.885-21.617-11.674-34.385l0.18-1.04l-1.055-0.005
			c-2.923-0.016-5.848,0.232-8.69,0.734c-5.265,0.928-10.299,2.701-14.96,5.275c-4.555,2.514-8.669,5.75-12.229,9.617
			c-7.642,8.304-12.061,18.769-12.708,29.887c-0.494,0.07-0.987,0.113-1.476,0.113c-3.748,0-7.272-2.028-9.228-5.331
			c-7.914-13.363-22.475-22.322-39.131-22.322c-0.202,0-0.405,0.002-0.607,0.004c-24.934,0.326-44.838,20.505-44.838,45.442
			c0,0.819,0.021,1.633,0.064,2.441c0.192,3.621-1.409,7.09-4.31,9.266c-4.533,3.398-7.475,8.805-7.507,14.898
			c-0.055,10.362,8.628,18.84,18.99,18.84h2.684h3.16h3.059h2.007h8.622c2.818,0,5.102-2.284,5.102-5.102s-2.284-5.102-5.102-5.102
			h-8.622h-1.662h-3.404h-3.16h-2.684c-2.357,0-4.592-0.941-6.292-2.65c-1.621-1.629-2.507-3.736-2.495-5.932
			c0.014-2.693,1.262-5.169,3.425-6.791c5.618-4.213,8.75-10.93,8.378-17.967c-0.033-0.629-0.05-1.269-0.05-1.902
			c0-9.363,3.597-18.164,10.128-24.784c6.532-6.62,15.282-10.333,24.64-10.455c0.158-0.002,0.317-0.003,0.474-0.003
			c6.236,0,12.359,1.646,17.707,4.762c5.203,3.031,9.575,7.372,12.644,12.556c3.776,6.374,10.676,10.334,18.008,10.334
			c1.14,0,2.29-0.097,3.416-0.285c1.191-0.2,2.414-0.302,3.636-0.302c5.801,0,11.254,2.26,15.355,6.363
			c4.101,4.103,6.358,9.558,6.355,15.358c-0.006,11.965-9.882,21.698-22.015,21.698h-2.621h-0.42h-5.71h-7.979
			c-2.818,0-5.102,2.284-5.102,5.102s2.284,5.102,5.102,5.102h7.979h5.71h2.516h0.525c11.339,0,21.383-5.866,27.131-14.736
			c5.152,1.789,10.536,2.688,15.917,2.686c13.075,0,26.115-5.252,35.647-15.607c3.065-3.331,5.64-7.05,7.651-11.053
			c2.558-5.09,4.183-10.549,4.829-16.225C-1100.74,2393.493-1100.671,2390.567-1100.862,2387.661 M-1114.919,2408.051
			L-1114.919,2408.051c-1.59,3.164-3.628,6.106-6.059,8.748c-6.931,7.532-16.381,11.913-26.608,12.337
			c-4.629,0.191-9.161-0.455-13.439-1.845c0.65-2.522,1-5.165,1.002-7.892c0.008-16.08-11.881-29.382-27.347-31.599
			c0.663-8.52,4.121-16.521,9.997-22.903c2.821-3.066,6.078-5.628,9.68-7.616c2.9-1.601,5.998-2.815,9.22-3.616
			c1.048,12.07,6.507,23.193,15.445,31.419c8.651,7.962,19.812,12.474,31.534,12.772
			C-1112.148,2401.402-1113.299,2404.826-1114.919,2408.051"/>
		<path clip-path="url(#SVGID_4_)" fill="#1B377A" d="M-1227.316,2441.325h-11.49l8.569-14.514c1.433-2.425,0.627-5.553-1.799-6.985
			c-2.426-1.435-5.553-0.628-6.986,1.799l-13.113,22.208c-0.932,1.577-0.947,3.532-0.038,5.123c0.908,1.591,2.599,2.572,4.43,2.572
			h11.476l-10.611,17.914c-1.435,2.424-0.633,5.553,1.791,6.988c0.815,0.483,1.71,0.713,2.594,0.713
			c1.743,0,3.442-0.894,4.395-2.503l15.172-25.614c0.933-1.577,0.95-3.533,0.042-5.126
			C-1223.792,2442.308-1225.483,2441.325-1227.316,2441.325"/>
		<path clip-path="url(#SVGID_4_)" fill="#1B377A" d="M-757.003,2387.915l-0.069-1.053l-1.026,0.243
			c-12.279,2.903-25.146-0.458-34.417-8.99c-9.522-8.763-13.886-21.616-11.675-34.384l0.181-1.041l-1.056-0.005
			c-2.923-0.017-5.848,0.233-8.69,0.735c-5.265,0.927-10.298,2.7-14.959,5.275c-4.555,2.512-8.67,5.748-12.229,9.617
			c-7.545,8.198-11.941,18.508-12.674,29.468c-0.532,0.082-1.063,0.127-1.59,0.127c-3.748,0-7.271-2.027-9.228-5.331
			c-7.914-13.361-22.475-22.32-39.131-22.32c-0.201,0-0.404,0.001-0.606,0.004c-24.935,0.324-44.839,20.504-44.839,45.44
			c0,0.819,0.022,1.634,0.064,2.442c0.192,3.621-1.408,7.09-4.31,9.266c-4.533,3.398-7.474,8.805-7.507,14.898
			c-0.055,10.361,8.628,18.84,18.99,18.84h2.685h6.218h2.008c2.817,0,5.101-2.284,5.101-5.102c0-2.818-2.284-5.102-5.101-5.102
			h-1.663h-6.563h-2.685c-2.357,0-4.592-0.941-6.292-2.652c-1.62-1.629-2.507-3.734-2.495-5.93c0.014-2.695,1.263-5.17,3.425-6.791
			c5.619-4.213,8.75-10.93,8.378-17.967c-0.033-0.629-0.05-1.27-0.05-1.903c0-9.361,3.597-18.164,10.129-24.784
			c6.531-6.619,15.282-10.332,24.64-10.455c0.157-0.002,0.316-0.002,0.473-0.002c6.236,0,12.36,1.646,17.708,4.762
			c5.202,3.031,9.574,7.373,12.644,12.556c3.775,6.374,10.675,10.334,18.007,10.334c1.141,0,2.29-0.096,3.417-0.285
			c1.191-0.2,2.414-0.302,3.636-0.302c5.801,0,11.254,2.26,15.354,6.363c4.102,4.103,6.358,9.557,6.355,15.357
			c-0.007,11.965-9.884,21.699-22.016,21.699h-2.62h-6.131c-2.817,0-5.101,2.283-5.101,5.102c0,2.817,2.283,5.102,5.101,5.102h8.227
			h0.524c11.211,0,21.156-5.734,26.936-14.434c5.235,1.853,10.715,2.787,16.192,2.787c13.075-0.002,26.115-5.252,35.646-15.607
			c3.066-3.332,5.641-7.051,7.651-11.054c2.559-5.089,4.183-10.548,4.828-16.226
			C-756.88,2393.749-756.812,2390.823-757.003,2387.915 M-771.06,2408.306L-771.06,2408.306c-1.59,3.164-3.628,6.106-6.058,8.748
			c-6.932,7.531-16.382,11.914-26.608,12.338c-4.692,0.193-9.284-0.473-13.614-1.901c0.711-2.628,1.095-5.388,1.098-8.239
			c0.008-16.043-11.824-29.32-27.236-31.586c0.737-8.371,4.18-16.227,9.965-22.513c2.821-3.065,6.078-5.628,9.68-7.616
			c2.901-1.601,5.999-2.815,9.221-3.617c1.048,12.071,6.507,23.194,15.445,31.42c8.65,7.961,19.812,12.475,31.533,12.773
			C-768.288,2401.657-769.438,2405.083-771.06,2408.306"/>
		<path clip-path="url(#SVGID_4_)" fill="#1B377A" d="M-910.147,2440.707c-3.02,0-5.477,2.457-5.477,5.477s2.457,5.477,5.477,5.477
			s5.477-2.457,5.477-5.477S-907.127,2440.707-910.147,2440.707"/>
		<path clip-path="url(#SVGID_4_)" fill="#1B377A" d="M-924.067,2462.285c-3.02,0-5.477,2.457-5.477,5.477s2.457,5.477,5.477,5.477
			s5.477-2.457,5.477-5.477S-921.047,2462.285-924.067,2462.285"/>
		<path clip-path="url(#SVGID_4_)" fill="#1B377A" d="M-879.679,2440.707c-3.02,0-5.477,2.457-5.477,5.477s2.457,5.477,5.477,5.477
			s5.477-2.457,5.477-5.477S-876.659,2440.707-879.679,2440.707"/>
		<path clip-path="url(#SVGID_4_)" fill="#1B377A" d="M-893.966,2462.285c-3.02,0-5.477,2.457-5.477,5.477s2.457,5.477,5.477,5.477
			s5.477-2.457,5.477-5.477S-890.946,2462.285-893.966,2462.285"/>
		<path clip-path="url(#SVGID_4_)" fill="#1B377A" d="M-866.419,2418.866c-3.021,0-5.478,2.457-5.478,5.477s2.457,5.477,5.478,5.477
			s5.478-2.457,5.478-5.477S-863.398,2418.866-866.419,2418.866"/>
		<path clip-path="url(#SVGID_4_)" fill="#1B377A" d="M-755.188,2756.222c-2.717,0-4.976-2.144-5.093-4.883
			c-0.121-2.815,2.063-5.195,4.878-5.315c3.853-0.165,6.87-3.32,6.87-7.18c0-3.962-3.224-7.186-7.186-7.186
			c-2.573,0-4.968,1.392-6.247,3.63c-1.396,2.447-4.511,3.297-6.96,1.9c-2.446-1.398-3.297-4.514-1.899-6.96
			c3.091-5.411,8.879-8.774,15.106-8.774c9.588,0,17.389,7.802,17.389,17.39c0,9.342-7.308,16.974-16.636,17.373
			C-755.04,2756.22-755.114,2756.222-755.188,2756.222"/>
		<path clip-path="url(#SVGID_4_)" fill="#1B377A" d="M-869.833,2674.141c-6.229,0-12.018,3.361-15.106,8.773
			c-1.397,2.448-0.545,5.563,1.901,6.96c2.446,1.396,5.562,0.545,6.959-1.9c1.278-2.239,3.673-3.63,6.246-3.63
			c3.963,0,7.187,3.224,7.187,7.186c0,3.86-3.019,7.013-6.87,7.178c-0.016,0-0.03,0.007-0.047,0.007h-80.314
			c-2.817,0-5.101,2.284-5.101,5.103c0,2.817,2.284,5.101,5.101,5.101h80.579c0.051,0,0.1-0.013,0.15-0.015
			c0.022,0,0.045,0,0.067-0.001c9.329-0.399,16.638-8.03,16.638-17.372C-852.443,2681.941-860.245,2674.141-869.833,2674.141"/>
		<path clip-path="url(#SVGID_4_)" fill="#1B377A" d="M-767.784,2722.69h-80.579c-2.817,0-5.102,2.284-5.102,5.102
			s2.284,5.102,5.102,5.102h80.579c2.817,0,5.102-2.284,5.102-5.102S-764.967,2722.69-767.784,2722.69"/>
		<path clip-path="url(#SVGID_4_)" fill="#1B377A" d="M-901.329,2663.598h80.314c0.017,0.001,0.031,0.006,0.048,0.007
			c3.851,0.165,6.869,3.318,6.869,7.179c0,3.961-3.224,7.186-7.187,7.186c-2.573,0-4.967-1.393-6.246-3.631
			c-1.397-2.446-4.514-3.299-6.961-1.899c-2.445,1.396-3.296,4.513-1.898,6.96c3.091,5.411,8.879,8.773,15.105,8.773
			c9.589,0,17.39-7.802,17.39-17.389c0-9.343-7.309-16.974-16.637-17.373c-0.012-0.001-0.021,0.002-0.033,0.002
			c-0.063-0.002-0.121-0.018-0.185-0.018h-80.58c-2.817,0-5.102,2.284-5.102,5.101
			C-906.431,2661.313-904.146,2663.598-901.329,2663.598"/>
		<path clip-path="url(#SVGID_4_)" fill="#1B377A" d="M-949.69,2663.598h27.506c2.817,0,5.101-2.284,5.101-5.103
			c0-2.816-2.284-5.101-5.101-5.101h-27.506c-2.817,0-5.102,2.284-5.102,5.101C-954.792,2661.313-952.507,2663.598-949.69,2663.598"
			/>
		<path clip-path="url(#SVGID_4_)" fill="#1B377A" d="M-869.642,2722.69h-27.506c-2.817,0-5.101,2.284-5.101,5.102
			s2.284,5.102,5.101,5.102h27.506c2.817,0,5.103-2.284,5.103-5.102S-866.824,2722.69-869.642,2722.69"/>
		<path clip-path="url(#SVGID_4_)" fill="#1B377A" d="M-1257.916,2671.789c5.695,5.305,12.151,11.315,24.84,11.315
			c12.688,0,19.143-6.011,24.838-11.315c5.146-4.793,9.212-8.579,17.885-8.579c8.674,0,12.739,3.786,17.886,8.579
			c5.678,5.289,12.115,11.276,24.729,11.313c0.011,0,0.022,0.003,0.033,0.003c0.014,0,0.028-0.001,0.042-0.001
			c0.012,0,0.023,0.001,0.036,0.001c0.009,0,0.017-0.002,0.026-0.002c11.927-0.057,21.613-9.774,21.613-21.714
			c0-11.976-9.742-21.718-21.717-21.718c-5.529,0-10.798,2.08-14.834,5.854c-2.058,1.926-2.165,5.154-0.24,7.212
			c1.925,2.057,5.151,2.162,7.211,0.239c2.138-2.001,4.931-3.103,7.863-3.103c6.349,0,11.514,5.165,11.514,11.515
			c0,6.339-5.151,11.497-11.487,11.513c-8.637-0.016-12.698-3.796-17.836-8.578c-5.695-5.306-12.15-11.316-24.839-11.316
			s-19.144,6.011-24.838,11.316c-5.147,4.793-9.212,8.578-17.885,8.578c-8.674,0-12.739-3.785-17.886-8.578
			c-1.212-1.129-2.465-2.295-3.805-3.428c-2.155-1.816-5.371-1.543-7.189,0.61c-1.816,2.153-1.544,5.372,0.609,7.188
			C-1260.197,2669.665-1259.089,2670.696-1257.916,2671.789"/>
		<path clip-path="url(#SVGID_4_)" fill="#1B377A" d="M-1189.823,2722.638c0.011,0,0.021,0.003,0.033,0.003
			c0.014,0,0.028-0.001,0.042-0.001c0.012,0,0.023,0.001,0.036,0.001c0.009,0,0.017-0.002,0.026-0.002
			c11.926-0.059,21.613-9.775,21.613-21.716c0-11.975-9.743-21.718-21.717-21.718c-5.531,0-10.798,2.079-14.834,5.855
			c-2.058,1.925-2.165,5.153-0.241,7.211c1.926,2.056,5.153,2.163,7.211,0.24c2.139-2.001,4.931-3.104,7.864-3.104
			c6.348,0,11.513,5.166,11.513,11.515c0,6.341-5.15,11.498-11.486,11.514c-8.638-0.016-12.699-3.795-17.836-8.578
			c-5.695-5.305-12.15-11.316-24.839-11.316s-19.144,6.012-24.839,11.316c-5.146,4.793-9.212,8.579-17.884,8.579
			c-8.673,0-12.739-3.786-17.886-8.58c-1.211-1.128-2.464-2.295-3.805-3.427c-2.155-1.817-5.372-1.542-7.189,0.608
			c-1.817,2.154-1.544,5.372,0.609,7.19c1.15,0.97,2.258,2.002,3.432,3.095c5.695,5.304,12.15,11.316,24.839,11.316
			c12.688,0,19.143-6.012,24.838-11.316c5.146-4.793,9.211-8.58,17.885-8.58c8.674,0,12.739,3.787,17.886,8.58
			C-1208.874,2716.613-1202.437,2722.602-1189.823,2722.638"/>
		<path clip-path="url(#SVGID_4_)" fill="#1B377A" d="M-1105.16,2736.413c-8.674,0-12.738-3.786-17.886-8.58
			c-5.695-5.304-12.15-11.316-24.84-11.316c-12.688,0-19.143,6.013-24.837,11.316c-5.147,4.794-9.212,8.58-17.885,8.58
			c-8.674,0-12.739-3.786-17.885-8.579c-1.212-1.129-2.465-2.296-3.806-3.428c-2.155-1.817-5.372-1.542-7.189,0.609
			c-1.817,2.153-1.544,5.372,0.609,7.189c1.151,0.97,2.259,2.002,3.432,3.095c5.695,5.304,12.149,11.316,24.839,11.316
			c12.688,0,19.143-6.014,24.838-11.316c5.146-4.794,9.212-8.58,17.884-8.58c8.674,0,12.74,3.786,17.887,8.58
			c5.695,5.304,12.151,11.316,24.839,11.316c2.817,0,5.102-2.284,5.102-5.102S-1102.343,2736.413-1105.16,2736.413"/>
		<path clip-path="url(#SVGID_4_)" fill="#1B377A" d="M-1205.285,2750.735c-2.817,0-5.102-2.284-5.102-5.103
			c0-2.816,2.285-5.101,5.102-5.101c6.35,0,11.515-5.165,11.515-11.515s-5.165-11.515-11.515-11.515
			c-2.931,0-5.724,1.102-7.862,3.104c-2.059,1.923-5.285,1.816-7.211-0.24c-1.925-2.058-1.818-5.286,0.24-7.211
			c4.036-3.775,9.304-5.856,14.833-5.856c11.976,0,21.718,9.743,21.718,21.719S-1193.309,2750.735-1205.285,2750.735"/>
		<path clip-path="url(#SVGID_4_)" fill="#1B377A" d="M-1239.375,2051.375c2.817,0,5.102-2.284,5.102-5.103v-6.184
			c0-2.818-2.285-5.102-5.102-5.102s-5.102,2.283-5.102,5.102v6.184C-1244.477,2049.091-1242.192,2051.375-1239.375,2051.375"/>
		<path clip-path="url(#SVGID_4_)" fill="#1B377A" d="M-1281.398,2066.181c0.996,0.996,2.302,1.494,3.607,1.494
			c1.306,0,2.612-0.498,3.608-1.494c1.992-1.992,1.992-5.223,0-7.215l-4.373-4.373c-1.992-1.992-5.223-1.992-7.215,0
			s-1.992,5.223,0,7.215L-1281.398,2066.181z"/>
		<path clip-path="url(#SVGID_4_)" fill="#1B377A" d="M-1293.43,2096.162h-6.185c-2.817,0-5.101,2.284-5.101,5.102
			s2.284,5.102,5.101,5.102h6.185c2.817,0,5.102-2.284,5.102-5.102S-1290.613,2096.162-1293.43,2096.162"/>
		<path clip-path="url(#SVGID_4_)" fill="#1B377A" d="M-1280.737,2136.073l-4.373,4.374c-1.992,1.992-1.992,5.222,0.001,7.214
			c0.996,0.996,2.301,1.494,3.606,1.494c1.306,0,2.612-0.498,3.608-1.495l4.373-4.374c1.992-1.992,1.992-5.222-0.001-7.214
			C-1275.515,2134.08-1278.745,2134.079-1280.737,2136.073"/>
		<path clip-path="url(#SVGID_4_)" fill="#1B377A" d="M-1200.685,2067.014c1.306,0,2.611-0.498,3.607-1.494l4.373-4.373
			c1.993-1.992,1.993-5.223,0-7.215c-1.992-1.992-5.222-1.992-7.214,0l-4.373,4.373c-1.993,1.992-1.993,5.223,0,7.215
			C-1203.295,2066.516-1201.991,2067.014-1200.685,2067.014"/>
		<path clip-path="url(#SVGID_4_)" fill="#1B377A" d="M-1145.375,2145.751c2.817,0,5.102-2.284,5.102-5.103
			c0-2.816-2.285-5.101-5.102-5.101h-53.427c-0.007,0-0.013-0.003-0.02-0.003c-1.714-0.073-3.057-1.479-3.057-3.197
			c0-1.764,1.436-3.2,3.199-3.2c1.148,0,2.214,0.621,2.784,1.619c1.398,2.446,4.515,3.297,6.96,1.899
			c2.447-1.397,3.297-4.515,1.9-6.96c-2.382-4.17-6.844-6.762-11.644-6.762c-7.389,0-13.402,6.014-13.402,13.403
			c0,6.194,4.171,11.401,9.913,12.936c0.644,0.294,1.354,0.468,2.108,0.468H-1145.375z"/>
		<path clip-path="url(#SVGID_4_)" fill="#1B377A" d="M-1136.306,2154.732h-41.08c-0.056,0-0.107,0.015-0.162,0.017
			c-0.019,0-0.037-0.005-0.056-0.004c-7.191,0.307-12.824,6.188-12.824,13.391c0,7.391,6.013,13.403,13.402,13.403
			c4.8,0,9.262-2.591,11.644-6.762c1.397-2.446,0.547-5.563-1.9-6.96c-2.446-1.398-5.563-0.547-6.96,1.898
			c-0.57,0.999-1.637,1.62-2.784,1.62c-1.763,0-3.199-1.436-3.199-3.2c0-1.72,1.343-3.125,3.057-3.197
			c0.007,0,0.013-0.003,0.02-0.003h40.842c2.817,0,5.102-2.284,5.102-5.102S-1133.489,2154.732-1136.306,2154.732"/>
		<path clip-path="url(#SVGID_4_)" fill="#1B377A" d="M-1105.824,2154.732h-11.236c-2.818,0-5.102,2.284-5.102,5.102
			s2.284,5.102,5.102,5.102h11.236c2.817,0,5.102-2.284,5.102-5.102S-1103.007,2154.732-1105.824,2154.732"/>
		<path clip-path="url(#SVGID_4_)" fill="#1B377A" d="M-1100.586,2133.141c0.009-17.633-14.283-31.93-31.913-31.93
			c-1.814,0-3.594,0.15-5.326,0.442c-0.578,0.098-1.155,0.145-1.726,0.145c-3.748,0-7.272-2.027-9.228-5.33
			c-7.914-13.363-22.475-22.322-39.131-22.322c-0.202,0-0.404,0.002-0.607,0.004c-5.978,0.078-11.661,1.309-16.856,3.461
			c-7.458-10.563-19.746-17.471-33.66-17.471c-22.75,0-41.194,18.442-41.194,41.193c0,20.849,15.491,38.071,35.589,40.807
			c-0.296,1.306-0.463,2.663-0.47,4.057c-0.055,10.362,8.628,18.84,18.99,18.84h10.91c2.818,0,5.102-2.283,5.102-5.102
			s-2.284-5.102-5.102-5.102h-10.91c-2.357,0-4.592-0.941-6.292-2.65c-1.621-1.629-2.507-3.736-2.495-5.932
			c0.014-2.693,1.262-5.169,3.425-6.79c5.618-4.213,8.75-10.931,8.378-17.968c-0.033-0.63-0.05-1.269-0.05-1.902
			c0-9.361,3.597-18.164,10.129-24.784c6.531-6.62,15.281-10.333,24.639-10.455c0.158-0.002,0.317-0.003,0.474-0.003
			c6.236,0,12.359,1.646,17.707,4.763c5.203,3.031,9.576,7.372,12.644,12.556c3.776,6.374,10.676,10.334,18.008,10.334
			c1.14,0,2.29-0.097,3.416-0.285c1.191-0.2,2.414-0.302,3.636-0.302c5.801,0,11.254,2.259,15.355,6.362s6.358,9.558,6.355,15.359
			c-0.001,0.456-0.005,1.449-0.029,2.148c-0.017,0.174-0.027,0.351-0.027,0.529c0,2.832,2.297,5.129,5.13,5.129
			c2.832,0,5.129-2.297,5.129-5.129c0-0.111-0.01-0.22-0.017-0.328C-1100.593,2134.807-1100.586,2133.456-1100.586,2133.141
			 M-1233.355,2119.591c0,0.818,0.021,1.633,0.064,2.44c0.192,3.621-1.409,7.091-4.31,9.267c-0.428,0.32-0.837,0.665-1.235,1.021
			c-0.066,0.001-0.131,0.005-0.197,0.005c-8.278,0-16.06-3.223-21.914-9.076c-5.853-5.854-9.076-13.637-9.076-21.914
			c0-8.278,3.223-16.061,9.076-21.914c5.854-5.854,13.636-9.077,21.914-9.077c8.278,0,16.061,3.224,21.914,9.077
			c1.003,1.003,1.916,2.069,2.761,3.18C-1225.878,2090.833-1233.355,2104.314-1233.355,2119.591"/>
		<path clip-path="url(#SVGID_4_)" fill="#1B377A" d="M-530.515,2431.851c2.816,0,5.102-2.284,5.102-5.103
			c0-2.816-2.285-5.101-5.102-5.101h-53.427c-0.007,0-0.014-0.003-0.021-0.003c-1.714-0.073-3.057-1.479-3.057-3.197
			c0-1.765,1.436-3.201,3.199-3.201c1.146,0,2.214,0.621,2.783,1.62c1.397,2.446,4.516,3.297,6.961,1.899
			c2.446-1.397,3.297-4.515,1.899-6.96c-2.382-4.171-6.844-6.762-11.644-6.762c-7.39,0-13.402,6.013-13.402,13.403
			c0,6.194,4.171,11.401,9.912,12.936c0.645,0.294,1.354,0.468,2.109,0.468H-530.515z"/>
		<path clip-path="url(#SVGID_4_)" fill="#1B377A" d="M-521.445,2440.832h-41.08c-0.055,0-0.106,0.015-0.16,0.017
			c-0.02,0-0.038-0.005-0.058-0.004c-7.191,0.307-12.824,6.188-12.824,13.391c0,7.391,6.013,13.403,13.403,13.403
			c4.799,0,9.261-2.591,11.643-6.762c1.397-2.446,0.547-5.563-1.899-6.96c-2.446-1.397-5.563-0.548-6.961,1.898
			c-0.569,0.999-1.636,1.62-2.782,1.62c-1.765,0-3.2-1.436-3.2-3.2c0-1.72,1.343-3.125,3.057-3.197c0.007,0,0.014-0.003,0.021-0.003
			h40.842c2.817,0,5.102-2.284,5.102-5.102S-518.628,2440.832-521.445,2440.832"/>
		<path clip-path="url(#SVGID_4_)" fill="#1B377A" d="M-490.812,2440.832h-11.388c-2.817,0-5.102,2.284-5.102,5.102
			s2.284,5.102,5.102,5.102h11.388c2.816,0,5.102-2.284,5.102-5.102S-487.995,2440.832-490.812,2440.832"/>
		<path clip-path="url(#SVGID_4_)" fill="#1B377A" d="M-427.243,2386.386l-0.069-1.054l-1.027,0.243
			c-12.279,2.903-25.146-0.458-34.417-8.99c-9.521-8.763-13.885-21.617-11.674-34.385l0.18-1.04l-1.056-0.005
			c-2.922-0.016-5.847,0.232-8.689,0.734c-5.266,0.928-10.299,2.701-14.96,5.275c-4.555,2.514-8.669,5.75-12.229,9.617
			c-7.915,8.601-12.375,19.523-12.764,31.087c-0.248,0.017-0.495,0.028-0.741,0.028c-3.748,0-7.272-2.027-9.229-5.33
			c-7.914-13.363-22.475-22.322-39.131-22.322c-0.201,0-0.404,0.002-0.606,0.004c-24.935,0.326-44.839,20.505-44.838,45.441
			c0,0.818,0.021,1.633,0.063,2.44c0.192,3.622-1.408,7.091-4.31,9.267c-4.533,3.398-7.475,8.805-7.507,14.898
			c-0.056,10.362,8.628,18.84,18.989,18.84h10.911c2.818,0,5.102-2.284,5.102-5.102c0-2.818-2.283-5.102-5.102-5.102h-10.911
			c-2.357,0-4.592-0.941-6.292-2.65c-1.62-1.629-2.507-3.736-2.495-5.932c0.015-2.693,1.263-5.17,3.426-6.79
			c5.618-4.214,8.75-10.931,8.378-17.969c-0.033-0.629-0.051-1.268-0.051-1.901c0-9.361,3.598-18.164,10.129-24.784
			s15.282-10.333,24.64-10.455c0.158-0.002,0.316-0.003,0.474-0.003c6.236,0,12.359,1.646,17.708,4.763
			c5.202,3.031,9.574,7.372,12.644,12.556c3.775,6.374,10.676,10.334,18.008,10.334c1.141,0,2.289-0.097,3.416-0.285
			c1.191-0.201,2.414-0.303,3.636-0.303c5.801,0,11.254,2.26,15.355,6.363c4.101,4.104,6.357,9.558,6.354,15.359
			c0,0.43-0.125,3.365-0.159,4.287c0.003-0.055,0.007-0.118,0.011-0.191v6.746c0,2.357,1.602,4.337,3.775,4.922
			c5.396,1.981,11.063,2.973,16.728,2.971c13.075,0,26.116-5.252,35.646-15.607c3.065-3.331,5.641-7.05,7.651-11.053
			c2.559-5.09,4.183-10.549,4.829-16.225C-427.121,2392.218-427.053,2389.292-427.243,2386.386 M-441.3,2406.775L-441.3,2406.775
			c-1.59,3.164-3.628,6.106-6.059,8.748c-6.932,7.532-16.381,11.913-26.608,12.337c-4.079,0.17-8.086-0.302-11.907-1.366v-3.068
			c0.016-0.168,0.148-3.87,0.148-4.186c0.008-16.342-12.268-29.817-28.1-31.702c0.457-8.896,3.962-17.28,10.071-23.916
			c2.821-3.066,6.078-5.628,9.68-7.616c2.9-1.601,5.998-2.815,9.221-3.616c1.047,12.07,6.507,23.193,15.445,31.419
			c8.65,7.962,19.812,12.474,31.533,12.772C-438.528,2400.127-439.68,2403.551-441.3,2406.775"/>
		<path clip-path="url(#SVGID_4_)" fill="#1B377A" d="M-459.101,2681.158c-1.814,0-3.594,0.152-5.326,0.442
			c-0.578,0.098-1.154,0.145-1.726,0.145c-3.748,0-7.272-2.027-9.229-5.33c-7.913-13.363-22.474-22.322-39.129-22.322
			c-0.203,0-0.405,0.001-0.607,0.004c-4.717,0.063-9.252,0.836-13.508,2.217c-2.102-1.814-4.333-3.506-6.699-5.047
			c-13.735-8.943-30.133-12.006-46.169-8.617c-16.036,3.386-29.795,12.816-38.74,26.549c-6.654,10.214-10.052,21.905-9.962,33.821
			v0.131c-0.002,0.016-0.002,0.031,0,0.046c0.017,0.673,0.177,1.31,0.452,1.881c0.747,1.541,2.322,2.602,4.148,2.602
			c1.824,0,3.401-1.061,4.146-2.602c0.265-0.549,0.425-1.159,0.45-1.805c-0.004-0.159-0.007-0.317-0.004-0.476
			c-0.044-10.073,2.846-19.949,8.468-28.584c7.607-11.678,19.306-19.696,32.941-22.577c13.637-2.879,27.576-0.274,39.256,7.33
			c0.801,0.521,1.577,1.069,2.343,1.629c-3.563,2.147-6.799,4.77-9.63,7.778c-8.517-5.262-18.981-7.401-29.527-5.174
			c-18.907,3.992-31.933,20.696-32.023,39.285c0.004,0.002,0,0.005,0,0.007c-0.001,0.34,0,0.68,0.011,1.019
			c0.066,0.562,0.234,1.089,0.484,1.567c0.765,1.479,2.311,2.487,4.091,2.487s3.325-1.009,4.091-2.487
			c0.325-0.624,0.512-1.332,0.517-2.083v-0.032c0-0.025,0-0.051-0.003-0.077c-0.096-14.497,10.01-27.588,24.73-30.695
			c7.821-1.651,15.585-0.196,22.013,3.52c-2.149,3.496-3.833,7.31-4.978,11.354c-4.103-2.783-9.277-3.97-14.499-2.868
			c-8.874,1.874-14.98,9.728-14.996,18.455c0,0.246,0.004,0.494,0.014,0.744v0.003c0.062,0.602,0.238,1.171,0.512,1.681
			c0.771,1.459,2.304,2.451,4.068,2.451c1.764,0,3.296-0.992,4.067-2.451c0.331-0.62,0.521-1.327,0.533-2.076
			c-0.003-0.105-0.005-0.209-0.005-0.313v-0.002c0-4.49,3.14-8.537,7.706-9.502c4.562-0.965,9.065,1.463,10.884,5.567
			c-0.005,0.262-0.02,0.523-0.02,0.787c0,0.818,0.021,1.633,0.064,2.44c0.191,3.621-1.41,7.091-4.311,9.266
			c-4.533,3.399-7.475,8.806-7.507,14.899c-0.055,10.362,8.628,18.839,18.99,18.839h93.313c17.668,0,32.208-14.228,32.218-31.896
			C-427.179,2695.456-441.47,2681.158-459.101,2681.158 M-459.405,2734.781h-93.313c-2.357,0-4.593-0.941-6.293-2.651
			c-1.62-1.629-2.506-3.735-2.495-5.931c0.015-2.694,1.263-5.169,3.426-6.791c5.617-4.213,8.75-10.93,8.378-17.967
			c-0.033-0.63-0.051-1.27-0.051-1.902c0-9.362,3.598-18.164,10.129-24.784s15.281-10.333,24.64-10.455
			c0.158-0.003,0.316-0.004,0.475-0.004c6.235,0,12.358,1.647,17.707,4.762c5.202,3.032,9.575,7.373,12.644,12.557
			c3.776,6.374,10.676,10.334,18.008,10.334c1.141,0,2.29-0.096,3.416-0.285c1.191-0.2,2.415-0.302,3.636-0.302
			c5.801,0,11.254,2.26,15.355,6.361c4.101,4.104,6.357,9.559,6.354,15.36C-437.396,2725.047-447.272,2734.781-459.405,2734.781"/>
		<path clip-path="url(#SVGID_4_)" fill="#1B377A" d="M-1186.764,3000.415c-2.435-1.422-5.56-0.602-6.979,1.832l-17.647,30.216
			c-1.421,2.433-0.601,5.557,1.832,6.978c0.81,0.474,1.694,0.698,2.568,0.698c1.754,0,3.462-0.907,4.411-2.53l17.647-30.215
			C-1183.511,3004.96-1184.331,3001.836-1186.764,3000.415"/>
		<path clip-path="url(#SVGID_4_)" fill="#1B377A" d="M-1167.86,3000.415c-2.431-1.422-5.558-0.602-6.978,1.833l-17.646,30.216
			c-1.421,2.432-0.601,5.556,1.833,6.977c0.809,0.474,1.693,0.698,2.567,0.698c1.754,0,3.462-0.907,4.411-2.53l17.646-30.216
			C-1164.606,3004.96-1165.426,3001.836-1167.86,3000.415"/>
		<path clip-path="url(#SVGID_4_)" fill="#1B377A" d="M-1148.954,3000.415c-2.437-1.422-5.558-0.602-6.979,1.832l-17.647,30.216
			c-1.421,2.433-0.601,5.557,1.832,6.978c0.81,0.474,1.694,0.698,2.568,0.698c1.754,0,3.462-0.907,4.411-2.53l17.647-30.215
			C-1145.701,3004.96-1146.521,3001.836-1148.954,3000.415"/>
		<path clip-path="url(#SVGID_4_)" fill="#1B377A" d="M-1133.042,2961.149c-1.814,0-3.594,0.15-5.326,0.441
			c-0.577,0.098-1.154,0.146-1.726,0.146c-3.748,0-7.272-2.028-9.228-5.331c-7.914-13.362-22.475-22.321-39.131-22.321
			c-0.202,0-0.404,0.001-0.607,0.003c-4.579,0.061-8.986,0.795-13.134,2.102c-2.222-1.954-4.583-3.775-7.107-5.419
			c-13.735-8.944-30.132-12.007-46.169-8.618c-16.036,3.386-29.794,12.815-38.74,26.55c-6.654,10.214-10.051,21.904-9.962,33.82
			v0.131c-0.002,0.017-0.002,0.032,0,0.046c0.016,0.673,0.177,1.309,0.453,1.882c0.746,1.541,2.322,2.602,4.148,2.602
			c1.823,0,3.401-1.061,4.146-2.602c0.263-0.55,0.425-1.16,0.449-1.806c-0.004-0.158-0.006-0.317-0.004-0.477
			c-0.043-10.07,2.846-19.947,8.468-28.584c7.608-11.676,19.305-19.694,32.942-22.574c13.636-2.882,27.575-0.276,39.255,7.328
			c0.935,0.609,1.837,1.254,2.724,1.914c-3.583,2.116-6.845,4.706-9.703,7.691c-8.572-5.403-19.161-7.625-29.835-5.372
			c-18.907,3.992-31.933,20.697-32.022,39.285c0.002,0.003,0,0.005,0,0.007c-0.002,0.34,0,0.679,0.009,1.02
			c0.067,0.561,0.234,1.089,0.485,1.567c0.764,1.479,2.31,2.487,4.09,2.487c1.78,0,3.326-1.009,4.091-2.487
			c0.326-0.625,0.512-1.333,0.517-2.084v-0.033c0-0.023,0-0.049-0.002-0.075c-0.097-14.497,10.009-27.59,24.73-30.696
			c7.922-1.673,15.783-0.153,22.26,3.671c-2.181,3.478-3.903,7.271-5.083,11.304c-4.125-2.854-9.359-4.084-14.642-2.969
			c-8.872,1.874-14.98,9.726-14.996,18.455c0,0.245,0.004,0.493,0.014,0.744v0.002c0.062,0.602,0.239,1.171,0.512,1.682
			c0.772,1.458,2.304,2.45,4.068,2.45c1.764,0,3.296-0.992,4.068-2.45c0.33-0.62,0.521-1.328,0.532-2.077
			c-0.002-0.105-0.004-0.209-0.004-0.312v-0.003c0-4.49,3.14-8.537,7.706-9.502c4.599-0.973,9.138,1.502,10.927,5.667
			c-0.009,0.392-0.029,0.78-0.029,1.176c0,0.819,0.022,1.633,0.064,2.44c0.192,3.621-1.409,7.091-4.31,9.267
			c-4.533,3.397-7.475,8.805-7.507,14.898c-0.055,10.362,8.629,18.84,18.99,18.84h2.684h6.219h2.008
			c2.817,0,5.101-2.284,5.101-5.102s-2.284-5.102-5.101-5.102h-1.663h-6.564h-2.684c-2.357,0-4.592-0.941-6.292-2.65
			c-1.621-1.629-2.507-3.736-2.495-5.932c0.014-2.694,1.262-5.169,3.425-6.79c5.618-4.213,8.751-10.931,8.378-17.968
			c-0.033-0.63-0.05-1.269-0.05-1.902c0-9.362,3.597-18.164,10.129-24.784c6.531-6.62,15.282-10.333,24.639-10.455
			c0.158-0.002,0.317-0.003,0.474-0.003c6.236,0,12.359,1.646,17.707,4.762c5.203,3.032,9.576,7.372,12.645,12.556
			c3.775,6.374,10.675,10.334,18.007,10.334c1.14,0,2.29-0.097,3.416-0.285c1.191-0.2,2.414-0.301,3.636-0.301
			c5.801,0,11.254,2.259,15.355,6.361c4.101,4.104,6.358,9.559,6.355,15.359c-0.006,11.965-9.882,21.698-22.015,21.698h-2.621h-6.13
			c-2.818,0-5.102,2.284-5.102,5.102s2.284,5.102,5.102,5.102h8.226h0.525c17.668,0,32.208-14.228,32.218-31.896
			C-1101.12,2975.446-1115.412,2961.149-1133.042,2961.149"/>
	</g>
	<g clip-path="url(#SVGID_2_)">
		<defs>
			<rect id="SVGID_5_" x="-1575.052" y="-1127.124" width="1393.687" height="819.06"/>
		</defs>
		<clipPath id="SVGID_6_">
			<use xlink:href="#SVGID_5_"  overflow="visible"/>
		</clipPath>
		<g clip-path="url(#SVGID_6_)">
			<defs>
				<rect id="SVGID_7_" x="-1683.363" y="-1132.063" width="1598" height="824"/>
			</defs>
			<clipPath id="SVGID_8_">
				<use xlink:href="#SVGID_7_"  overflow="visible"/>
			</clipPath>
			<g clip-path="url(#SVGID_8_)">
				
					<image overflow="visible" width="1598" height="824" xlink:href="7222DE84.png"  transform="matrix(1 0 0 1 -1683.3633 -1132.063)">
				</image>
			</g>
		</g>
	</g>
</g>
<g>
	<path fill="#1B377A" d="M69.919,57.716c2.817,0,5.102-2.284,5.102-5.102V46.43c0-2.817-2.284-5.103-5.102-5.103
		s-5.102,2.285-5.102,5.103v6.185C64.817,55.432,67.102,57.716,69.919,57.716"/>
	<path fill="#1B377A" d="M27.895,72.522c0.996,0.996,2.302,1.494,3.607,1.494s2.611-0.498,3.607-1.494
		c1.992-1.992,1.992-5.224,0-7.215l-4.373-4.373c-1.992-1.992-5.223-1.992-7.215,0c-1.992,1.991-1.992,5.223,0,7.215L27.895,72.522z
		"/>
	<path fill="#1B377A" d="M15.863,102.503H9.679c-2.817,0-5.102,2.284-5.102,5.102s2.284,5.102,5.102,5.102h6.185
		c2.817,0,5.103-2.284,5.103-5.102S18.681,102.503,15.863,102.503"/>
	<path fill="#1B377A" d="M28.556,142.414l-4.373,4.373c-1.992,1.992-1.992,5.223,0,7.215c0.996,0.996,2.302,1.494,3.607,1.494
		s2.611-0.498,3.607-1.494l4.373-4.373c1.992-1.992,1.992-5.223,0-7.215S30.548,140.421,28.556,142.414"/>
	<path fill="#1B377A" d="M108.608,73.355c1.306,0,2.611-0.498,3.607-1.494l4.373-4.374c1.993-1.992,1.993-5.223,0-7.215
		c-1.991-1.992-5.222-1.992-7.214,0l-4.374,4.374c-1.992,1.992-1.992,5.223,0,7.215C105.997,72.857,107.303,73.355,108.608,73.355"
		/>
	<path fill="#1B377A" d="M176.108,107.445c-1.814,0-3.594,0.152-5.327,0.443c-0.576,0.097-1.153,0.144-1.726,0.144
		c-3.748,0-7.271-2.027-9.229-5.33c-7.913-13.362-22.475-22.322-39.13-22.322c-0.201,0-0.404,0.001-0.606,0.005
		c-5.794,0.075-11.311,1.235-16.375,3.266c-7.478-10.396-19.672-17.17-33.455-17.17c-22.751,0-41.193,18.441-41.193,41.192
		c0,20.611,15.139,37.675,34.901,40.706c-0.296,1.306-0.462,2.66-0.47,4.053c-0.055,10.362,8.629,18.84,18.99,18.84h93.313
		c17.668,0,32.209-14.229,32.218-31.896C208.03,121.743,193.738,107.445,176.108,107.445 M39.27,107.672
		c0-8.276,3.224-16.06,9.077-21.913s13.636-9.078,21.914-9.078s16.061,3.225,21.914,9.078c0.886,0.887,1.693,1.828,2.456,2.797
		c-11.738,8.209-19.379,21.823-19.379,37.27c0,0.819,0.021,1.633,0.064,2.44c0.191,3.62-1.41,7.091-4.311,9.267
		c-0.467,0.349-0.912,0.725-1.344,1.117c-8.053-0.151-15.604-3.352-21.315-9.063C42.493,123.734,39.27,115.952,39.27,107.672
		 M175.803,161.068H82.489c-2.357,0-4.592-0.941-6.292-2.651c-1.622-1.629-2.507-3.735-2.495-5.931
		c0.015-2.694,1.263-5.169,3.425-6.791c5.618-4.213,8.751-10.93,8.378-17.967c-0.033-0.629-0.05-1.27-0.05-1.902
		c0-9.362,3.598-18.164,10.129-24.784c6.53-6.62,15.282-10.333,24.64-10.455c0.158-0.002,0.316-0.003,0.474-0.003
		c6.236,0,12.359,1.646,17.707,4.762c5.203,3.031,9.575,7.372,12.645,12.556c3.774,6.374,10.675,10.334,18.007,10.334
		c1.141,0,2.29-0.097,3.417-0.285c1.191-0.2,2.414-0.302,3.636-0.302c5.801,0,11.254,2.26,15.354,6.361
		c4.102,4.104,6.358,9.559,6.355,15.36C197.812,151.334,187.936,161.068,175.803,161.068"/>
</g>
</svg>
