<?xml version="1.0" encoding="utf-8"?>
<!-- Generator: Adobe Illustrator 16.0.0, SVG Export Plug-In . SVG Version: 6.00 Build 0)  -->
<!DOCTYPE svg PUBLIC "-//W3C//DTD SVG 1.1//EN" "http://www.w3.org/Graphics/SVG/1.1/DTD/svg11.dtd">
<svg version="1.1" id="Layer_1" xmlns="http://www.w3.org/2000/svg" xmlns:xlink="http://www.w3.org/1999/xlink" x="0px" y="0px"
	 width="212.598px" height="212.599px" viewBox="0 0 212.598 212.599" enable-background="new 0 0 212.598 212.599"
	 xml:space="preserve">
<path fill="#1B377A" d="M207.963,97.096l-0.069-1.052l-1.027,0.242c-12.278,2.904-25.146-0.457-34.417-8.99
	c-9.521-8.762-13.885-21.615-11.674-34.384l0.18-1.04l-1.055-0.005c-2.923-0.017-5.848,0.233-8.69,0.733
	c-5.265,0.928-10.298,2.702-14.959,5.276c-4.556,2.513-8.67,5.749-12.229,9.617c-7.649,8.312-12.07,18.79-12.711,29.918
	c-0.409,0.049-0.818,0.081-1.224,0.081c-3.749,0-7.272-2.027-9.229-5.33C92.944,78.8,78.383,69.841,61.729,69.841
	c-0.202,0-0.405,0.001-0.607,0.004c-24.936,0.326-44.839,20.506-44.839,45.442c0,0.819,0.022,1.633,0.065,2.44
	c0.19,3.621-1.409,7.091-4.312,9.266c-4.532,3.398-7.474,8.806-7.506,14.9c-0.056,10.361,8.628,18.838,18.989,18.838h93.313
	c11.309,0,21.328-5.833,27.084-14.661c5.09,1.741,10.404,2.612,15.716,2.612c13.075-0.002,26.115-5.252,35.646-15.608
	c3.064-3.331,5.64-7.05,7.651-11.053c2.558-5.089,4.183-10.548,4.828-16.226C208.085,102.931,208.154,100.004,207.963,97.096
	 M116.833,150.53H23.52c-2.357,0-4.592-0.941-6.293-2.651c-1.619-1.629-2.506-3.734-2.494-5.931c0.015-2.694,1.263-5.169,3.425-6.79
	c5.619-4.213,8.75-10.93,8.378-17.969c-0.033-0.628-0.05-1.268-0.05-1.901c0-9.363,3.597-18.164,10.129-24.784
	c6.53-6.62,15.282-10.333,24.64-10.455c0.158-0.002,0.316-0.004,0.475-0.004c6.236,0,12.359,1.647,17.707,4.764
	c5.201,3.031,9.574,7.371,12.644,12.555c3.775,6.374,10.675,10.334,18.008,10.334c1.14,0,2.289-0.096,3.416-0.285
	c1.191-0.2,2.414-0.302,3.636-0.302c5.801,0,11.254,2.26,15.354,6.361c4.101,4.104,6.358,9.56,6.355,15.36
	C138.842,140.796,128.966,150.53,116.833,150.53 M193.906,117.488L193.906,117.488c-1.59,3.164-3.628,6.106-6.059,8.748
	c-6.932,7.531-16.381,11.913-26.608,12.338c-4.546,0.187-8.997-0.436-13.207-1.772c0.663-2.544,1.018-5.212,1.021-7.964
	c0.007-16.167-12.009-29.521-27.595-31.631c0.669-8.507,4.126-16.496,9.994-22.873c2.821-3.064,6.078-5.627,9.68-7.615
	c2.901-1.602,5.998-2.815,9.221-3.617c1.048,12.07,6.507,23.193,15.445,31.42c8.65,7.961,19.812,12.474,31.533,12.772
	C196.678,110.839,195.526,114.263,193.906,117.488"/>
</svg>
