<?xml version="1.0" encoding="utf-8"?>
<!-- Generator: Adobe Illustrator 16.0.0, SVG Export Plug-In . SVG Version: 6.00 Build 0)  -->
<!DOCTYPE svg PUBLIC "-//W3C//DTD SVG 1.1//EN" "http://www.w3.org/Graphics/SVG/1.1/DTD/svg11.dtd">
<svg version="1.1" id="Layer_1" xmlns="http://www.w3.org/2000/svg" xmlns:xlink="http://www.w3.org/1999/xlink" x="0px" y="0px"
	 width="212.598px" height="212.599px" viewBox="0 0 212.598 212.599" enable-background="new 0 0 212.598 212.599"
	 xml:space="preserve">
<g>
	<defs>
		<rect id="SVGID_1_" x="-1578.364" y="-1127.122" width="1400" height="4680.32"/>
	</defs>
	<clipPath id="SVGID_2_">
		<use xlink:href="#SVGID_1_"  overflow="visible"/>
	</clipPath>
	<g clip-path="url(#SVGID_2_)">
		<defs>
			<rect id="SVGID_3_" x="-1578.364" y="-1127.124" width="1400" height="4680.322"/>
		</defs>
		<clipPath id="SVGID_4_">
			<use xlink:href="#SVGID_3_"  overflow="visible"/>
		</clipPath>
	</g>
</g>
<path fill="#1B377A" d="M87.277,59.111c8.349,0,16.549,2.206,23.712,6.379c6.964,4.058,12.816,9.869,16.925,16.807
	c4.287,7.238,12.117,11.735,20.434,11.735c1.292,0,2.594-0.109,3.87-0.323c1.65-0.278,3.345-0.418,5.036-0.418
	c8.042,0,15.603,3.133,21.288,8.821s8.814,13.25,8.811,21.293c-0.009,16.588-13.685,30.083-30.484,30.083H39.025
	c-3.697,0-7.193-1.47-9.849-4.14c-2.553-2.565-3.948-5.902-3.931-9.395c0.022-4.249,1.99-8.151,5.397-10.707
	c6.38-4.783,9.935-12.41,9.513-20.403c-0.045-0.842-0.067-1.698-0.067-2.544c0-12.533,4.817-24.317,13.563-33.183
	c8.748-8.866,20.463-13.839,32.99-14.002C86.854,59.112,87.066,59.111,87.277,59.111 M87.277,48.908
	c-0.255,0-0.512,0.002-0.767,0.005c-31.489,0.411-56.625,25.895-56.625,57.387c0,1.034,0.027,2.063,0.081,3.083
	c0.242,4.572-1.779,8.954-5.443,11.701c-5.725,4.292-9.439,11.119-9.479,18.815c-0.07,13.086,10.896,23.792,23.981,23.792h117.843
	c22.313,0,40.676-17.968,40.687-40.28c0.012-22.268-18.036-40.323-40.301-40.323c-2.292,0-4.539,0.191-6.727,0.558
	c-0.729,0.123-1.459,0.184-2.18,0.184c-4.733,0-9.184-2.561-11.654-6.732C126.699,60.221,108.311,48.908,87.277,48.908"/>
</svg>
