<?xml version="1.0" encoding="utf-8"?>
<!-- Generator: Adobe Illustrator 16.0.0, SVG Export Plug-In . SVG Version: 6.00 Build 0)  -->
<!DOCTYPE svg PUBLIC "-//W3C//DTD SVG 1.1//EN" "http://www.w3.org/Graphics/SVG/1.1/DTD/svg11.dtd">
<svg version="1.1" id="Layer_1" xmlns="http://www.w3.org/2000/svg" xmlns:xlink="http://www.w3.org/1999/xlink" x="0px" y="0px"
	 width="212.598px" height="212.599px" viewBox="0 0 212.598 212.599" enable-background="new 0 0 212.598 212.599"
	 xml:space="preserve">
<g>
	<defs>
		<rect id="SVGID_1_" x="-1578.364" y="-1127.122" width="1400" height="4680.32"/>
	</defs>
	<clipPath id="SVGID_2_">
		<use xlink:href="#SVGID_1_"  overflow="visible"/>
	</clipPath>
	<g clip-path="url(#SVGID_2_)">
		<defs>
			<rect id="SVGID_3_" x="-1578.364" y="-1127.124" width="1400" height="4680.322"/>
		</defs>
		<clipPath id="SVGID_4_">
			<use xlink:href="#SVGID_3_"  overflow="visible"/>
		</clipPath>
	</g>
</g>
<g>
	<path fill="none" d="M145.466,145.691H40.105c-2.193,2.43-3.439,5.557-3.457,8.912c-0.018,3.492,1.378,6.829,3.931,9.395
		c2.655,2.67,6.151,4.14,9.849,4.14h117.843c16.8,0,30.476-13.495,30.484-30.083c0.004-8.043-3.125-15.604-8.811-21.293
		c-1.403-1.404-2.922-2.651-4.533-3.735C181.789,131.672,165.173,145.691,145.466,145.691z"/>
	<path fill="#1B377A" d="M145.852,65.087c-2.292,0-4.539,0.191-6.727,0.558c-0.729,0.123-1.459,0.184-2.18,0.184
		c-4.733,0-9.184-2.561-11.654-6.732c-9.994-16.875-28.383-28.188-49.416-28.188c-0.255,0-0.512,0.002-0.767,0.005
		c-31.489,0.411-56.625,25.895-56.625,57.387c0,1.034,0.027,2.063,0.081,3.083c0.242,4.572-1.779,8.954-5.443,11.701
		c-5.725,4.292-9.439,11.119-9.479,18.815c-0.07,13.086,10.896,23.792,23.981,23.792h0.599c1.634-3.977,4.312-7.415,7.704-9.958
		c0.102-0.076,0.188-0.166,0.287-0.245c3.474-2.758,5.392-7.011,5.156-11.457c-0.054-1.021-0.081-2.049-0.081-3.083
		c0-31.492,25.136-56.976,56.625-57.387c0.255-0.003,0.512-0.005,0.767-0.005c6.939,0,13.587,1.238,19.744,3.495
		c5.736,2.102,11.042,5.092,15.753,8.805c5.56,4.383,10.294,9.768,13.919,15.889c2.471,4.172,6.921,6.732,11.654,6.732
		c0.721,0,1.45-0.061,2.18-0.184c2.188-0.366,4.435-0.558,6.727-0.558c2.194,0,4.345,0.182,6.443,0.519
		c3.832,0.616,7.483,1.769,10.873,3.385C184.081,81.141,166.845,65.087,145.852,65.087z"/>
	<path fill="#1B377A" d="M185.973,101.641c-3.39-1.616-7.041-2.77-10.873-3.385c-2.099-0.337-4.249-0.519-6.443-0.519
		c-2.292,0-4.539,0.191-6.727,0.558c-0.729,0.123-1.459,0.184-2.18,0.184c-4.733,0-9.184-2.561-11.654-6.732
		c-3.625-6.121-8.359-11.505-13.919-15.889c-4.711-3.713-10.017-6.703-15.753-8.805c-6.157-2.256-12.805-3.495-19.744-3.495
		c-0.255,0-0.512,0.002-0.767,0.005c-31.489,0.411-56.625,25.895-56.625,57.387c0,1.034,0.027,2.063,0.081,3.083
		c0.235,4.445-1.683,8.698-5.156,11.457c-0.099,0.079-0.186,0.168-0.287,0.245c-3.393,2.543-6.07,5.981-7.704,9.958
		c-1.124,2.734-1.759,5.721-1.775,8.857c-0.07,13.086,10.896,23.792,23.981,23.792h117.843c22.313,0,40.676-17.968,40.687-40.28
		C208.966,121.992,199.569,108.121,185.973,101.641z M168.271,168.137H50.428c-3.697,0-7.193-1.47-9.849-4.14
		c-2.553-2.565-3.948-5.902-3.931-9.395c0.018-3.354,1.264-6.481,3.457-8.912c0.585-0.648,1.224-1.257,1.94-1.795
		c3.008-2.255,5.379-5.147,7.01-8.408c1.828-3.654,2.726-7.771,2.503-11.996c-0.045-0.842-0.067-1.698-0.067-2.544
		c0-12.533,4.817-24.317,13.563-33.183c8.748-8.866,20.463-13.839,32.99-14.002c0.212-0.003,0.424-0.004,0.635-0.004
		c8.349,0,16.549,2.206,23.712,6.379c6.964,4.058,12.816,9.869,16.925,16.807c4.287,7.238,12.117,11.735,20.434,11.735
		c1.292,0,2.594-0.109,3.87-0.323c1.65-0.278,3.345-0.418,5.036-0.418c2.422,0,4.799,0.289,7.095,0.842
		c3.447,0.829,6.71,2.259,9.66,4.244c1.611,1.084,3.13,2.331,4.533,3.735c5.686,5.688,8.814,13.25,8.811,21.293
		C198.746,154.642,185.07,168.137,168.271,168.137z"/>
</g>
</svg>
