<?xml version="1.0" encoding="utf-8"?>
<!-- Generator: Adobe Illustrator 16.0.0, SVG Export Plug-In . SVG Version: 6.00 Build 0)  -->
<!DOCTYPE svg PUBLIC "-//W3C//DTD SVG 1.1//EN" "http://www.w3.org/Graphics/SVG/1.1/DTD/svg11.dtd">
<svg version="1.1" id="Layer_1" xmlns="http://www.w3.org/2000/svg" xmlns:xlink="http://www.w3.org/1999/xlink" x="0px" y="0px"
	 width="212.598px" height="212.599px" viewBox="0 0 212.598 212.599" enable-background="new 0 0 212.598 212.599"
	 xml:space="preserve">
<g>
	<defs>
		<rect id="SVGID_1_" x="-1578.364" y="-1127.122" width="1400" height="4680.32"/>
	</defs>
	<clipPath id="SVGID_2_">
		<use xlink:href="#SVGID_1_"  overflow="visible"/>
	</clipPath>
	<g clip-path="url(#SVGID_2_)">
		<defs>
			<rect id="SVGID_3_" x="-1578.364" y="-1127.124" width="1400" height="4680.322"/>
		</defs>
		<clipPath id="SVGID_4_">
			<use xlink:href="#SVGID_3_"  overflow="visible"/>
		</clipPath>
	</g>
</g>
<g>
	<path fill="#1B377A" d="M88.4,117.879c-2.436-1.422-5.559-0.601-6.979,1.832L53.34,167.792c-1.42,2.434-0.6,5.558,1.832,6.979
		c0.811,0.473,1.695,0.697,2.569,0.697c1.754,0,3.462-0.906,4.41-2.529l28.081-48.081C91.653,122.424,90.833,119.3,88.4,117.879"/>
	<path fill="#1B377A" d="M115.438,117.879c-2.435-1.422-5.558-0.601-6.979,1.832l-28.082,48.081c-1.42,2.434-0.6,5.558,1.832,6.979
		c0.811,0.473,1.695,0.697,2.569,0.697c1.754,0,3.462-0.906,4.41-2.529l28.082-48.081
		C118.691,122.424,117.871,119.3,115.438,117.879"/>
	<path fill="#1B377A" d="M142.476,117.879c-2.437-1.422-5.558-0.601-6.979,1.832l-28.08,48.081
		c-1.421,2.434-0.601,5.558,1.832,6.979c0.81,0.473,1.694,0.697,2.568,0.697c1.754,0,3.462-0.906,4.41-2.529l28.081-48.081
		C145.729,122.424,144.908,119.3,142.476,117.879"/>
	<path fill="#1B377A" d="M157.253,71.311c-2.292,0-4.539,0.19-6.728,0.56c-0.729,0.122-1.457,0.182-2.179,0.182
		c-4.733,0-9.184-2.561-11.655-6.731c-9.993-16.876-28.382-28.19-49.416-28.19c-0.254,0-0.51,0.002-0.766,0.006
		c-31.489,0.41-56.625,25.895-56.625,57.387c0,1.034,0.027,2.063,0.081,3.083c0.242,4.573-1.779,8.954-5.443,11.701
		c-5.725,4.292-9.439,11.119-9.479,18.815c-0.07,13.086,10.896,23.791,23.98,23.791h0.222h4.672h6.814
		c2.817,0,5.102-2.283,5.102-5.101s-2.284-5.103-5.102-5.103h-9.412h-1.383h-0.913c-3.695,0-7.192-1.469-9.847-4.138
		c-2.554-2.567-3.95-5.903-3.932-9.396c0.022-4.249,1.99-8.152,5.398-10.707c6.379-4.783,9.935-12.41,9.512-20.404
		c-0.045-0.84-0.067-1.695-0.067-2.543c0-12.533,4.817-24.317,13.564-33.184c8.746-8.865,20.463-13.838,32.99-14.002
		c0.211-0.002,0.422-0.004,0.633-0.004c8.35,0,16.55,2.206,23.713,6.379c6.964,4.059,12.817,9.869,16.926,16.808
		c4.287,7.237,12.116,11.735,20.433,11.735c1.292,0,2.595-0.109,3.87-0.323c1.651-0.277,3.346-0.418,5.036-0.418
		c8.042,0,15.603,3.133,21.288,8.821c5.686,5.688,8.814,13.25,8.811,21.293c-0.009,16.588-13.684,30.082-30.484,30.082h-1.397
		h-2.238h-6.306c-2.818,0-5.102,2.285-5.102,5.103s2.283,5.101,5.102,5.101h5.733h0.293h3.915c22.313,0,40.676-17.967,40.688-40.279
		C197.566,89.367,179.518,71.311,157.253,71.311"/>
</g>
</svg>
