<?xml version="1.0" encoding="utf-8"?>
<!-- Generator: Adobe Illustrator 16.0.0, SVG Export Plug-In . SVG Version: 6.00 Build 0)  -->
<!DOCTYPE svg PUBLIC "-//W3C//DTD SVG 1.1//EN" "http://www.w3.org/Graphics/SVG/1.1/DTD/svg11.dtd">
<svg version="1.1" id="Layer_1" xmlns="http://www.w3.org/2000/svg" xmlns:xlink="http://www.w3.org/1999/xlink" x="0px" y="0px"
	 width="212.598px" height="212.599px" viewBox="0 0 212.598 212.599" enable-background="new 0 0 212.598 212.599"
	 xml:space="preserve">
<g>
	<defs>
		<rect id="SVGID_1_" x="-1578.364" y="-1127.122" width="1400" height="4680.32"/>
	</defs>
	<clipPath id="SVGID_2_">
		<use xlink:href="#SVGID_1_"  overflow="visible"/>
	</clipPath>
	<g clip-path="url(#SVGID_2_)">
		<defs>
			<rect id="SVGID_3_" x="-1578.364" y="-1127.124" width="1400" height="4680.322"/>
		</defs>
		<clipPath id="SVGID_4_">
			<use xlink:href="#SVGID_3_"  overflow="visible"/>
		</clipPath>
	</g>
</g>
<g>
	<path fill="#1B377A" d="M69.663,50.134c2.816,0,5.102-2.285,5.102-5.103v-6.185c0-2.817-2.285-5.102-5.102-5.102
		s-5.102,2.284-5.102,5.102v6.185C64.562,47.849,66.847,50.134,69.663,50.134"/>
	<path fill="#1B377A" d="M27.64,64.939c0.996,0.996,2.301,1.494,3.605,1.494c1.307,0,2.613-0.498,3.609-1.494
		c1.992-1.992,1.992-5.223,0-7.215l-4.373-4.373c-1.992-1.992-5.223-1.992-7.215,0s-1.992,5.223,0,7.215L27.64,64.939z"/>
	<path fill="#1B377A" d="M15.608,94.921H9.423c-2.816,0-5.102,2.283-5.102,5.102c0,2.816,2.285,5.102,5.102,5.102h6.186
		c2.816,0,5.102-2.285,5.102-5.102C20.71,97.205,18.425,94.921,15.608,94.921"/>
	<path fill="#1B377A" d="M28.3,134.832l-4.373,4.373c-1.992,1.992-1.992,5.223,0,7.215c0.996,0.996,2.303,1.494,3.607,1.494
		c1.307,0,2.611-0.498,3.607-1.494l4.373-4.373c1.992-1.992,1.992-5.223,0-7.215S30.292,132.839,28.3,134.832"/>
	<path fill="#1B377A" d="M108.354,65.773c1.305,0,2.609-0.498,3.605-1.494l4.373-4.373c1.994-1.992,1.994-5.223,0-7.215
		c-1.992-1.992-5.221-1.992-7.213,0l-4.373,4.373c-1.994,1.992-1.994,5.223,0,7.215C105.743,65.275,107.048,65.773,108.354,65.773"
		/>
	<path fill="#1B377A" d="M122.642,139.13c-2.438-1.422-5.559-0.603-6.98,1.832l-17.646,30.215c-1.42,2.433-0.602,5.558,1.832,6.978
		c0.811,0.474,1.693,0.698,2.568,0.698c1.754,0,3.461-0.907,4.41-2.529l17.648-30.215
		C125.894,143.675,125.073,140.55,122.642,139.13"/>
	<path fill="#1B377A" d="M141.546,139.13c-2.436-1.422-5.561-0.603-6.98,1.832l-17.646,30.215c-1.42,2.433-0.602,5.558,1.832,6.978
		c0.811,0.474,1.693,0.698,2.568,0.698c1.754,0,3.461-0.907,4.41-2.529l17.648-30.215
		C144.798,143.675,143.978,140.55,141.546,139.13"/>
	<path fill="#1B377A" d="M160.45,139.13c-2.438-1.422-5.561-0.603-6.98,1.832l-17.646,30.215c-1.42,2.433-0.602,5.558,1.832,6.978
		c0.811,0.474,1.693,0.698,2.568,0.698c1.754,0,3.461-0.907,4.41-2.529l17.648-30.215C163.702,143.675,162.882,140.55,160.45,139.13
		"/>
	<path fill="#1B377A" d="M176.362,99.863c-1.814,0-3.594,0.151-5.326,0.443c-0.578,0.097-1.154,0.144-1.725,0.144
		c-3.748,0-7.273-2.027-9.229-5.33c-7.914-13.362-22.475-22.321-39.131-22.321c-0.203,0-0.404,0.001-0.607,0.004
		c-5.947,0.077-11.602,1.295-16.775,3.426c-7.467-10.484-19.711-17.33-33.564-17.33c-22.75,0-41.193,18.443-41.193,41.193
		c0,20.782,15.393,37.959,35.396,40.778c-0.285,1.283-0.447,2.612-0.455,3.979c-0.055,10.363,8.629,18.841,18.99,18.841h2.684h6.221
		h2.006c2.818,0,5.102-2.284,5.102-5.102c0-2.819-2.283-5.102-5.102-5.102h-1.662h-6.564h-2.684c-2.357,0-4.592-0.941-6.293-2.65
		c-1.619-1.63-2.506-3.737-2.494-5.932c0.014-2.694,1.262-5.169,3.426-6.791c5.617-4.213,8.75-10.931,8.377-17.967
		c-0.031-0.63-0.049-1.27-0.049-1.902c0-9.362,3.596-18.164,10.129-24.784c6.531-6.62,15.281-10.333,24.639-10.455
		c0.158-0.003,0.316-0.003,0.475-0.003c6.236,0,12.359,1.646,17.707,4.762c5.203,3.031,9.576,7.373,12.643,12.556
		c3.777,6.374,10.678,10.334,18.01,10.334c1.139,0,2.289-0.097,3.416-0.285c1.189-0.2,2.412-0.302,3.635-0.302
		c5.801,0,11.254,2.26,15.355,6.363c4.102,4.103,6.357,9.557,6.355,15.358c-0.006,11.964-9.883,21.698-22.016,21.698h-2.621h-6.131
		c-2.816,0-5.102,2.282-5.102,5.102c0,2.817,2.285,5.102,5.102,5.102h8.227h0.525c17.668,0,32.207-14.229,32.219-31.896
		C208.284,114.161,193.993,99.863,176.362,99.863 M75.507,118.244c0,0.818,0.021,1.633,0.064,2.44
		c0.191,3.621-1.41,7.091-4.311,9.267c-0.473,0.354-0.922,0.732-1.357,1.129c-8.24-0.025-15.982-3.244-21.813-9.074
		c-5.854-5.854-9.078-13.636-9.078-21.914c0-8.277,3.225-16.061,9.078-21.914S61.728,69.1,70.005,69.1s16.061,3.224,21.914,9.077
		c0.957,0.958,1.828,1.977,2.643,3.032C83.009,89.439,75.507,102.941,75.507,118.244"/>
</g>
</svg>
