<?xml version="1.0" encoding="utf-8"?>
<!-- Generator: Adobe Illustrator 16.0.0, SVG Export Plug-In . SVG Version: 6.00 Build 0)  -->
<!DOCTYPE svg PUBLIC "-//W3C//DTD SVG 1.1//EN" "http://www.w3.org/Graphics/SVG/1.1/DTD/svg11.dtd">
<svg version="1.1" id="Layer_1" xmlns="http://www.w3.org/2000/svg" xmlns:xlink="http://www.w3.org/1999/xlink" x="0px" y="0px"
	 width="212.598px" height="212.599px" viewBox="0 0 212.598 212.599" enable-background="new 0 0 212.598 212.599"
	 xml:space="preserve">
<g>
	<defs>
		<rect id="SVGID_1_" x="-1578.364" y="-1127.122" width="1400" height="4680.32"/>
	</defs>
	<clipPath id="SVGID_2_">
		<use xlink:href="#SVGID_1_"  overflow="visible"/>
	</clipPath>
	<g clip-path="url(#SVGID_2_)">
		<defs>
			<rect id="SVGID_3_" x="-1578.364" y="-1127.124" width="1400" height="4680.322"/>
		</defs>
		<clipPath id="SVGID_4_">
			<use xlink:href="#SVGID_3_"  overflow="visible"/>
		</clipPath>
	</g>
</g>
<g>
	<path fill="#1B377A" d="M208.003,89.514l-0.069-1.052l-1.027,0.242c-12.278,2.904-25.146-0.457-34.417-8.99
		c-9.521-8.762-13.885-21.615-11.674-34.384l0.18-1.04l-1.055-0.005c-2.923-0.017-5.848,0.233-8.69,0.733
		c-5.265,0.928-10.298,2.702-14.959,5.277c-4.556,2.512-8.67,5.748-12.229,9.616c-7.646,8.308-12.067,18.783-12.71,29.908
		c-0.437,0.055-0.872,0.091-1.305,0.091c-3.748,0-7.271-2.027-9.228-5.33c-7.914-13.363-22.477-22.322-39.131-22.322
		c-0.202,0-0.404,0.001-0.606,0.004c-24.935,0.326-44.839,20.506-44.839,45.442c0,0.819,0.021,1.633,0.064,2.44
		c0.191,3.621-1.409,7.091-4.311,9.266c-4.532,3.398-7.475,8.806-7.507,14.9c-0.055,10.361,8.629,18.839,18.99,18.839h2.685h6.219
		h2.007c2.818,0,5.102-2.284,5.102-5.102s-2.283-5.102-5.102-5.102h-1.662h-6.563H23.48c-2.357,0-4.592-0.941-6.292-2.651
		c-1.621-1.629-2.507-3.734-2.495-5.931c0.015-2.694,1.263-5.169,3.425-6.79c5.618-4.213,8.751-10.93,8.378-17.968
		c-0.033-0.629-0.05-1.269-0.05-1.902c0-9.363,3.597-18.164,10.129-24.784c6.531-6.62,15.282-10.333,24.64-10.455
		c0.158-0.002,0.316-0.004,0.474-0.004c6.236,0,12.359,1.647,17.707,4.764c5.203,3.031,9.574,7.371,12.645,12.555
		c3.775,6.374,10.675,10.334,18.007,10.334c1.141,0,2.29-0.096,3.417-0.285c1.19-0.2,2.414-0.301,3.636-0.301
		c5.801,0,11.254,2.259,15.354,6.36c4.102,4.104,6.358,9.56,6.355,15.36c-0.008,11.965-9.883,21.698-22.016,21.698h-2.62h-6.131
		c-2.817,0-5.102,2.284-5.102,5.102s2.284,5.102,5.102,5.102h8.227h0.524c11.318,0,21.346-5.846,27.099-14.686
		c5.11,1.755,10.447,2.636,15.78,2.636c13.075-0.002,26.115-5.252,35.646-15.608c3.064-3.331,5.64-7.05,7.65-11.053
		c2.559-5.089,4.184-10.548,4.829-16.226C208.125,95.349,208.194,92.422,208.003,89.514 M193.946,109.905L193.946,109.905
		c-1.59,3.164-3.628,6.106-6.059,8.748c-6.932,7.531-16.381,11.913-26.608,12.338c-4.572,0.188-9.049-0.441-13.281-1.795
		c0.66-2.538,1.013-5.198,1.013-7.941c0.01-16.14-11.966-29.477-27.514-31.621c0.667-8.51,4.125-16.504,9.995-22.883
		c2.821-3.064,6.078-5.627,9.68-7.615c2.901-1.601,5.998-2.815,9.221-3.617c1.048,12.071,6.507,23.193,15.445,31.42
		c8.65,7.961,19.812,12.475,31.533,12.772C196.718,103.257,195.566,106.681,193.946,109.905"/>
	<path fill="#1B377A" d="M63.378,128.592c-2.436-1.422-5.559-0.603-6.979,1.832l-17.647,30.215
		c-1.421,2.433-0.601,5.557,1.832,6.978c0.81,0.474,1.694,0.698,2.568,0.698c1.754,0,3.462-0.906,4.41-2.53L65.21,135.57
		C66.631,133.137,65.811,130.013,63.378,128.592"/>
	<path fill="#1B377A" d="M82.282,128.592c-2.436-1.422-5.558-0.603-6.979,1.832l-17.647,30.215
		c-1.421,2.433-0.601,5.557,1.832,6.978c0.81,0.474,1.694,0.698,2.568,0.698c1.754,0,3.462-0.906,4.41-2.53l17.647-30.214
		C85.535,133.137,84.715,130.013,82.282,128.592"/>
	<path fill="#1B377A" d="M101.187,128.592c-2.436-1.422-5.559-0.603-6.979,1.832l-17.647,30.215
		c-1.421,2.433-0.601,5.557,1.832,6.978c0.81,0.474,1.694,0.698,2.567,0.698c1.755,0,3.463-0.906,4.411-2.53l17.647-30.214
		C104.439,133.137,103.619,130.013,101.187,128.592"/>
</g>
</svg>
