<?xml version="1.0" encoding="utf-8"?>
<!-- Generator: Adobe Illustrator 16.0.0, SVG Export Plug-In . SVG Version: 6.00 Build 0)  -->
<!DOCTYPE svg PUBLIC "-//W3C//DTD SVG 1.1//EN" "http://www.w3.org/Graphics/SVG/1.1/DTD/svg11.dtd">
<svg version="1.1" id="Layer_1" xmlns="http://www.w3.org/2000/svg" xmlns:xlink="http://www.w3.org/1999/xlink" x="0px" y="0px"
	 width="212.598px" height="212.599px" viewBox="0 0 212.598 212.599" enable-background="new 0 0 212.598 212.599"
	 xml:space="preserve">
<g>
	<defs>
		<rect id="SVGID_1_" x="-1578.364" y="-1127.122" width="1400" height="4680.32"/>
	</defs>
	<clipPath id="SVGID_2_">
		<use xlink:href="#SVGID_1_"  overflow="visible"/>
	</clipPath>
	<g clip-path="url(#SVGID_2_)">
		<defs>
			<rect id="SVGID_3_" x="-1578.364" y="-1127.124" width="1400" height="4680.322"/>
		</defs>
		<clipPath id="SVGID_4_">
			<use xlink:href="#SVGID_3_"  overflow="visible"/>
		</clipPath>
	</g>
</g>
<g>
	<path fill="#1B377A" d="M157.253,68.383c-2.292,0-4.539,0.19-6.727,0.559c-0.729,0.123-1.457,0.183-2.18,0.183
		c-4.733,0-9.184-2.561-11.654-6.731c-9.994-16.875-28.383-28.19-49.416-28.19c-0.255,0-0.511,0.002-0.767,0.006
		c-31.489,0.41-56.625,25.895-56.625,57.387c0,1.034,0.027,2.062,0.081,3.083c0.242,4.573-1.779,8.954-5.443,11.701
		c-5.725,4.292-9.438,11.119-9.479,18.815c-0.07,13.085,10.896,23.792,23.981,23.792h0.222h4.671h6.814
		c2.817,0,5.102-2.284,5.102-5.102s-2.284-5.103-5.102-5.103h-9.412h-1.383h-0.912c-3.696,0-7.193-1.469-9.849-4.138
		c-2.553-2.567-3.948-5.904-3.931-9.396c0.023-4.249,1.99-8.151,5.398-10.707c6.379-4.783,9.935-12.41,9.512-20.403
		c-0.045-0.841-0.067-1.696-0.067-2.544c0-12.532,4.817-24.317,13.563-33.184c8.748-8.865,20.463-13.838,32.992-14.002
		c0.21-0.002,0.421-0.004,0.633-0.004c8.349,0,16.549,2.206,23.712,6.379c6.964,4.059,12.817,9.869,16.926,16.808
		c4.286,7.237,12.116,11.735,20.433,11.735c1.292,0,2.594-0.109,3.87-0.323c1.65-0.277,3.345-0.418,5.036-0.418
		c8.042,0,15.603,3.133,21.288,8.82c5.686,5.689,8.814,13.25,8.811,21.293c-0.009,16.589-13.684,30.083-30.484,30.083h-1.397h-2.238
		h-6.306c-2.817,0-5.102,2.285-5.102,5.103s2.284,5.102,5.102,5.102h5.733h0.293h3.915c22.313,0,40.676-17.968,40.688-40.28
		C197.565,86.438,179.518,68.383,157.253,68.383"/>
	<path fill="#1B377A" d="M80.554,137.6c-3.371,0-6.113,2.743-6.113,6.114s2.742,6.114,6.113,6.114s6.114-2.743,6.114-6.114
		S83.925,137.6,80.554,137.6"/>
	<path fill="#1B377A" d="M117.964,137.6c-3.371,0-6.114,2.743-6.114,6.114s2.743,6.114,6.114,6.114s6.114-2.743,6.114-6.114
		S121.335,137.6,117.964,137.6"/>
	<path fill="#1B377A" d="M60.659,166.168c-3.371,0-6.115,2.743-6.115,6.114s2.744,6.114,6.115,6.114s6.113-2.743,6.113-6.114
		S64.03,166.168,60.659,166.168"/>
	<path fill="#1B377A" d="M98.069,166.168c-3.371,0-6.114,2.743-6.114,6.114s2.743,6.114,6.114,6.114c3.37,0,6.113-2.743,6.113-6.114
		S101.439,166.168,98.069,166.168"/>
	<path fill="#1B377A" d="M144.569,112.758c0-3.371-2.743-6.114-6.114-6.114s-6.114,2.743-6.114,6.114s2.743,6.114,6.114,6.114
		S144.569,116.129,144.569,112.758"/>
</g>
</svg>
