<?xml version="1.0" encoding="utf-8"?>
<!-- Generator: Adobe Illustrator 16.0.0, SVG Export Plug-In . SVG Version: 6.00 Build 0)  -->
<!DOCTYPE svg PUBLIC "-//W3C//DTD SVG 1.1//EN" "http://www.w3.org/Graphics/SVG/1.1/DTD/svg11.dtd">
<svg version="1.1" id="Layer_1" xmlns="http://www.w3.org/2000/svg" xmlns:xlink="http://www.w3.org/1999/xlink" x="0px" y="0px"
	 width="218.268px" height="218.268px" viewBox="0 0 218.268 218.268" enable-background="new 0 0 218.268 218.268"
	 xml:space="preserve">
<g>
	<defs>
		<rect id="SVGID_1_" x="-1575.529" y="-1124.287" width="1400" height="4680.32"/>
	</defs>
	<clipPath id="SVGID_2_">
		<use xlink:href="#SVGID_1_"  overflow="visible"/>
	</clipPath>
	<g clip-path="url(#SVGID_2_)">
		<defs>
			<rect id="SVGID_3_" x="-1575.529" y="-1124.289" width="1400" height="4680.322"/>
		</defs>
		<clipPath id="SVGID_4_">
			<use xlink:href="#SVGID_3_"  overflow="visible"/>
		</clipPath>
	</g>
</g>
<g>
	<path fill="#1B377A" d="M200.6,160.547c-2.717,0-4.976-2.144-5.093-4.883c-0.121-2.815,2.063-5.195,4.878-5.315
		c3.853-0.165,6.87-3.32,6.87-7.18c0-3.962-3.224-7.186-7.186-7.186c-2.573,0-4.968,1.392-6.247,3.63
		c-1.396,2.447-4.511,3.297-6.96,1.9c-2.446-1.398-3.297-4.514-1.899-6.96c3.091-5.411,8.879-8.774,15.106-8.774
		c9.588,0,17.389,7.802,17.389,17.39c0,9.342-7.308,16.974-16.636,17.373C200.748,160.545,200.674,160.547,200.6,160.547"/>
	<path fill="#1B377A" d="M85.955,78.466c-6.229,0-12.018,3.361-15.106,8.773c-1.397,2.448-0.545,5.563,1.901,6.96
		c2.445,1.396,5.562,0.545,6.959-1.9c1.278-2.239,3.673-3.63,6.246-3.63c3.963,0,7.187,3.224,7.187,7.186
		c0,3.86-3.019,7.013-6.87,7.178c-0.016,0-0.03,0.007-0.047,0.007H5.91c-2.816,0-5.101,2.284-5.101,5.103
		c0,2.817,2.284,5.101,5.101,5.101h80.579c0.051,0,0.1-0.013,0.15-0.015c0.022,0,0.045,0,0.067-0.001
		c9.329-0.399,16.638-8.03,16.638-17.372C103.345,86.267,95.543,78.466,85.955,78.466"/>
	<path fill="#1B377A" d="M188.004,127.016h-80.579c-2.817,0-5.102,2.284-5.102,5.102s2.284,5.102,5.102,5.102h80.579
		c2.817,0,5.102-2.284,5.102-5.102S190.821,127.016,188.004,127.016"/>
	<path fill="#1B377A" d="M54.459,67.923h80.314c0.017,0.001,0.031,0.006,0.048,0.007c3.851,0.165,6.869,3.318,6.869,7.179
		c0,3.961-3.224,7.186-7.187,7.186c-2.573,0-4.967-1.393-6.246-3.631c-1.397-2.446-4.514-3.299-6.961-1.899
		c-2.445,1.396-3.296,4.513-1.898,6.96c3.091,5.411,8.879,8.773,15.105,8.773c9.589,0,17.39-7.802,17.39-17.389
		c0-9.343-7.309-16.974-16.637-17.373c-0.012-0.001-0.021,0.002-0.033,0.002c-0.063-0.002-0.121-0.018-0.185-0.018h-80.58
		c-2.816,0-5.102,2.284-5.102,5.101C49.357,65.639,51.643,67.923,54.459,67.923"/>
	<path fill="#1B377A" d="M6.098,67.923h27.506c2.817,0,5.102-2.284,5.102-5.103c0-2.816-2.284-5.101-5.102-5.101H6.098
		c-2.816,0-5.102,2.284-5.102,5.101C0.996,65.639,3.281,67.923,6.098,67.923"/>
	<path fill="#1B377A" d="M86.146,127.016H58.641c-2.816,0-5.101,2.284-5.101,5.102s2.284,5.102,5.101,5.102h27.506
		c2.817,0,5.103-2.284,5.103-5.102S88.964,127.016,86.146,127.016"/>
</g>
</svg>
